<svg id="Layer_2" data-name="Layer 2" xmlns="http://www.w3.org/2000/svg" xmlns:xlink="http://www.w3.org/1999/xlink" viewBox="0 0 1200 1200"><defs><style>.cls-1{fill:#efeee5;}.cls-1,.cls-3{stroke:#c2c2bf;stroke-miterlimit:10;}.cls-2{fill:url(#linear-gradient);}.cls-3{fill:#fff;}.cls-4{fill:url(#linear-gradient-2);}.cls-5{fill:url(#linear-gradient-3);}.cls-6{fill:url(#linear-gradient-4);}.cls-7{fill:url(#linear-gradient-5);}.cls-8{fill:url(#linear-gradient-6);}.cls-9{fill:#e4e9e6;}.cls-10{fill:#191918;}.cls-11{fill:#eae9e6;}</style><linearGradient id="linear-gradient" x1="250.46" y1="465.54" x2="250.46" y2="629.53" gradientUnits="userSpaceOnUse"><stop offset="0" stop-color="#555655"/><stop offset="0.51" stop-color="#466781"/><stop offset="1" stop-color="#006794"/></linearGradient><linearGradient id="linear-gradient-2" x1="569.23" y1="377.28" x2="570.82" y2="737.99" xlink:href="#linear-gradient"/><linearGradient id="linear-gradient-3" x1="865.5" y1="386.48" x2="865.5" y2="693.19" xlink:href="#linear-gradient"/><linearGradient id="linear-gradient-4" x1="619.54" y1="791.52" x2="620.06" y2="585.65" gradientUnits="userSpaceOnUse"><stop offset="0" stop-color="#265a7c"/><stop offset="1" stop-color="#204d80"/></linearGradient><linearGradient id="linear-gradient-5" x1="592.98" y1="690.32" x2="566" y2="680.67" gradientUnits="userSpaceOnUse"><stop offset="0" stop-color="#6583ab"/><stop offset="1" stop-color="#a1b8c9"/></linearGradient><linearGradient id="linear-gradient-6" x1="673.7" y1="679.46" x2="597.51" y2="701.52" gradientUnits="userSpaceOnUse"><stop offset="0" stop-color="#558da0"/><stop offset="1" stop-color="#8cbac1"/></linearGradient></defs><g id="Layer_3" data-name="Layer 3"><path class="cls-1" d="M369.5,439.5H126.3v215s1.2,8,12.2,8h79s36-5,49-19c0,0-3,20,5,22h53s17.74-.56,30.87-14.28l14.13-15.88v63.75a10.86,10.86,0,0,0,7,9.41h64.17s6.83-2,7.83-8V609l31,39.53s4,5.84,0,10.92c0,0-5,7.08-7,14.08,0,0-5,23,6,26h56s1.24,2-1.88,9c0,0-14.12,49,15.88,81,0,0,29,35,71,33,4.42.26,67-5,84-59,0,0,13-44.07,0-63h119s11-1,11-10v-124l124,123s26,10,27-10V399.62H900V513.5L784.23,397.77s-3.73-7.27-15.73-7.27H693.13v134l-72.63-152-54,112s-6-66-71-82c0,0-22-7-127-6Z"/></g><path class="cls-2" d="M140.5,454.5H360.41V597.05s2.09,61.45-80.91,53.45v-31s43.66,8,45.83-19l1.17-117h-54s58,58,0,131c0,0-22,40.87-132,30.93Z"/><path class="cls-3" d="M448.5,475.5v77.36s21.15-5.84,32.09-23.62a32.72,32.72,0,0,0,2.77-28.39C479.39,489.9,470.1,476.1,448.5,475.5Z"/><path class="cls-4" d="M383.46,415.5l0,281h47.31v-235s70.69-9,70.69,58c0,0-3,48-62,55l62,79.19-17,34.81,49-1,85-174,84,174,54,1V407.42H708.26V596.5l-89.76-178-96,192-16-18s50-32,44-88c0,0-2.17-52.74-45.81-76.55-11.42-6.23-24.27-10.39-37.33-10.67Z"/><polygon class="cls-5" points="765.5 687.5 765.5 409.71 915.5 558.5 915.5 412.5 965.5 412.5 965.5 680.29 816.5 529.5 816.5 687.5 765.5 687.5"/><path class="cls-6" d="M621.5,564.5l-65,138s-29.5,44.5,7,81c0,0,33,39,79,22,0,0,39.31-12.33,49.58-57.29,2.6-11.37,3.92-21.21-3.67-33.87Z"/><path class="cls-7" d="M604.5,604.5l-46,99s-19.32,36.12-1.76,62.93c2.08,3.18,6.52,1.69,8.89-1.27,3.53-4.42,6.37-20.56,11.87-54.66C577.5,710.5,587.5,673.5,604.5,604.5Z"/><path class="cls-8" d="M625.5,582.5S672.78,684.12,687.12,726c3.47,10.12,2.45,21.38-1.68,31.24C678,775,664,803,635.14,797.26c-7.35-1.46-12.81-10-14.19-14.79-3.72-12.82-3.77-44.16.55-111.52Z"/><circle class="cls-9" cx="617" cy="718" r="34.5"/><polygon class="cls-10" points="605.5 700.5 605.5 738.38 636.5 716.5 605.5 700.5"/><path class="cls-11" d="M237.5,497.5c45.88,29.19,19,85,19,85-18,38-82,32.67-82,32.67V484.5S215.5,483.5,237.5,497.5Z"/></svg>