<?xml version="1.0" encoding="UTF-8"?>
<svg id="Layer_1" data-name="Layer 1" xmlns="http://www.w3.org/2000/svg" viewBox="0 0 2229.17 1205.89">
  <defs>
    <style>
      .cls-1 {
        fill: #b3934a;
      }
    </style>
  </defs>
  <path class="cls-1" d="M2169.96,594.71c-76.12-90.68-137.69-198.97-265.29-234.93,0,0-2.62-4.9-7.33-13.51l10.09-3.43,40.3,26.88s48.15,35.26,136.59-13.46l-91.25-13.42,96.3-7.28s-34.68-82.83-153.91-56.52c0,0-28.02,8.37-38.11,53.19l-4.95,4.99c-40.91-74.36-174.51-307.78-244.12-319,0,0-301.97-28.02-533.67-14.56-231.75-13.46-533.72,14.56-533.72,14.56-69.56,11.23-203.15,244.64-244.12,319l-4.95-4.99c-10.09-44.82-38.06-53.19-38.06-53.19-119.23-26.31-153.96,56.52-153.96,56.52l96.3,7.28-91.25,13.42c88.45,48.72,136.6,13.46,136.6,13.46l40.3-26.88,10.09,3.43c-4.71,8.61-7.28,13.51-7.28,13.51-127.65,35.97-189.21,144.25-265.34,234.93C-16.92,685.39,2.11,921.61,2.11,921.61h492.57s-154.48-8.94-287.7-40.3c-133.22-31.35-143.3-118.66-137.69-100.77,5.61,17.94,45.91,38.06,45.91,38.06-48.05-116.28-26.36-185.84-8.47-217.67,7.18-12.66,21.93-18.94,35.97-15.13l451.6,123.08-92.92-77.22c26.88,22.36,159.15,26.31,219.43,20.13,112-11.47,393.8-16.79,393.8-16.79,0,0,281.75,5.33,393.75,16.79,60.28,6.19,192.54,2.24,219.43-20.13l-92.92,77.22,451.6-123.08c14.08-3.81,28.83,2.47,35.97,15.13,17.89,31.83,39.63,101.39-8.42,217.67,0,0,40.3-20.13,45.86-38.06,5.61-17.89-4.47,69.41-137.69,100.77-133.22,31.35-287.7,40.3-287.7,40.3h492.56s19.03-236.22-57.09-326.9ZM1831.88,351.26h-315.67l-39.2,221.09,17.94-227.28h-760.66l17.89,227.28-39.15-221.09h-315.72l-22.36,57.62C411.85,190.59,578.08,30.26,578.08,30.26l-1.66,29.35c88.45-27.98,538.19-21.27,538.19-21.27,0,0,449.75-6.71,538.14,21.27l-1.66-29.35s166.23,160.33,203.2,378.62l-22.41-57.62ZM292.89,689.46c.74-3.66,1.62-7.34,2.54-11.06,1.04,7.56,1.64,15.19,1.5,22.85-.63,24.04-7.79,54.82-33.25,64.05-25.56,1.33-51.24,1.15-76.84.42,0,0-3.23-.11-3.23-.11-30.45-21.66-34.83-64.25-23.64-97.3,1.27,28.33,6.09,61.31,29.67,79.39,23.68-.71,47.37-.56,71.05.27,4.3-1.56,8.83-5.57,12.03-9.57,10.94-13.64,15.97-31.93,20.16-48.96ZM455.1,716.48c.02,20.43-6.06,46.69-27.81,54.43-21.26,1.29-42.64,1.16-63.94.42,0,0-3.28-.13-3.28-.13-25.77-18.27-29.49-54.45-18.97-82.07,1.9,22.94,6.07,49.51,25.04,64.18,19.41-.69,38.81-.54,58.22.28,2.8-1.06,6.75-4.26,9.05-7.17,9.12-10.96,13.57-25.97,17.44-39.82,3.68-19.75,3.64,2.46,4.26,9.88ZM1932.26,701.26c-.14-7.67.46-15.3,1.5-22.85.92,3.71,1.8,7.39,2.54,11.06,4.19,17.03,9.22,35.32,20.16,48.96,3.2,4,7.73,8.01,12.03,9.57,23.68-.83,47.37-.98,71.05-.27,23.58-18.08,28.4-51.06,29.67-79.39,11.2,33.05,6.81,75.64-23.64,97.3,0,0-3.23.11-3.23.11-25.6.72-51.28.9-76.84-.42-25.46-9.22-32.62-40.01-33.25-64.05ZM1801.9,770.9c-21.74-7.73-27.82-34-27.81-54.43.61-7.42.58-29.63,4.26-9.88,3.87,13.84,8.32,28.85,17.44,39.82,2.3,2.91,6.25,6.11,9.05,7.17,19.41-.82,38.81-.97,58.22-.28,18.97-14.67,23.14-41.24,25.04-64.18,10.51,27.63,6.8,63.81-18.97,82.07,0,0-3.28.13-3.28.13-21.3.74-42.68.87-63.94-.42ZM9.97,1087.76v-138.61h118.55c11.02,0,18.99,2.12,23.93,6.36,4.94,4.24,7.41,11.08,7.41,20.52v30.95c0,9.36-2.47,16.15-7.41,20.39-4.94,4.24-12.92,6.36-23.93,6.36H41.7v54.03H9.97ZM114.22,973.15H41.7v36.72h72.52c5.59,0,9.42-.81,11.47-2.43,2.05-1.62,3.08-4.48,3.08-8.59v-14.82c0-4.02-1.03-6.84-3.08-8.46-2.05-1.62-5.88-2.43-11.47-2.43ZM209.56,1087.76v-138.61h118.55c11.02,0,18.99,2.12,23.93,6.36,4.94,4.24,7.41,11.08,7.41,20.52v32.52c0,9.36-2.47,16.18-7.41,20.46-4.94,4.28-12.92,6.43-23.93,6.43h-18.1l63.99,52.32h-46.29l-55.86-52.32h-30.55v52.32h-31.73ZM313.81,973.15h-72.52v38.55h72.52c5.59,0,9.42-.81,11.47-2.43,2.05-1.62,3.08-4.48,3.08-8.59v-16.65c0-4.02-1.03-6.84-3.08-8.46-2.05-1.62-5.88-2.43-11.47-2.43ZM424.88,1087.76v-138.61h141.89v23.6h-109.63v30.95h63.99v23.6h-63.99v34.36h110.94v26.1h-143.2ZM747.73,973.41h-90.75v29.77h86.42c13.55,0,22.71,2.32,27.47,6.95,4.76,4.64,7.15,13.24,7.15,25.83v19.02c0,12.59-2.38,21.2-7.15,25.83-4.77,4.63-13.92,6.95-27.47,6.95h-85.63c-13.55,0-22.71-2.32-27.47-6.95-4.77-4.63-7.15-13.25-7.15-25.83v-3.8l28.46-5.9v16.39h97.96v-31.6h-86.42c-13.46,0-22.56-2.32-27.28-6.95-4.72-4.63-7.08-13.25-7.08-25.83v-15.34c0-12.59,2.36-21.2,7.08-25.83,4.72-4.63,13.81-6.95,27.28-6.95h78.68c13.03,0,22.01,2.23,26.95,6.69,4.94,4.46,7.41,12.37,7.41,23.74v2.88l-28.46,6.69v-15.74ZM909.42,973.94v113.83h-32.26v-113.83h-63.6v-24.78h159.72v24.78h-63.86ZM1012.76,1087.76v-138.61h32.26v138.61h-32.26ZM1245.92,973.94h-100.71v87.73h100.71v-30.82h-52.72v-23.6h84.06v47.73c0,12.68-2.36,21.31-7.08,25.9-4.72,4.59-13.81,6.88-27.28,6.88h-95.6c-13.46,0-22.56-2.3-27.28-6.88-4.72-4.59-7.08-13.22-7.08-25.9v-73.04c0-12.59,2.36-21.2,7.08-25.83,4.72-4.63,13.81-6.95,27.28-6.95h95.6c13.29,0,22.34,2.27,27.15,6.82,4.81,4.55,7.21,12.76,7.21,24.65v3.15l-31.34,5.64v-15.47ZM1345.45,1087.76v-138.61h141.89v23.6h-109.63v30.95h63.99v23.6h-63.99v34.36h110.94v26.1h-143.2ZM1716.69,973.94v113.83h-32.26v-113.83h-63.6v-24.78h159.72v24.78h-63.86ZM1775.31,1087.76l78.42-138.61h31.08l79.47,138.61h-36.19l-16.65-30.29h-87.86l-16.13,30.29h-32.13ZM1837.34,1032.42h60.72l-29.9-56.39-30.82,56.39ZM1973.06,1087.76l65.7-71.21-66.88-67.4h42.75l44.32,47.08,42.09-47.08h37.11l-60.45,63.73,74.75,74.88h-43.8l-50.75-53.77-46.82,53.77h-38.03ZM2186.94,1087.76v-138.61h32.26v138.61h-32.26ZM685.77,1205.89l39.75-72.82h13.02l40.44,72.82h-13.36l-9.3-17.91h-49.26l-9.3,17.91h-11.99ZM712.15,1178.68h39.2l-19.63-37.27-19.56,37.27ZM892.23,1142.99h-51.53v20.32h45.88c6.48,0,10.91,1.19,13.3,3.58,2.39,2.39,3.58,6.91,3.58,13.57v8.2c0,6.71-1.17,11.25-3.51,13.64-2.34,2.39-6.8,3.58-13.36,3.58h-42.5c-6.61,0-11.12-1.21-13.5-3.62-2.39-2.41-3.58-6.95-3.58-13.61v-2l11.3-2.62v11.71h54.22v-21.91h-45.74c-6.61,0-11.09-1.21-13.43-3.62-2.34-2.41-3.51-6.95-3.51-13.61v-6.34c0-6.66,1.17-11.19,3.51-13.61,2.34-2.41,6.82-3.62,13.43-3.62h38.79c6.48,0,10.94,1.18,13.4,3.55,2.46,2.37,3.69,6.51,3.69,12.43v1.52l-10.4,2.96v-10.54ZM951.48,1205.89v-72.82h12.19v29.76h57.39v-29.76h12.12v72.82h-12.12v-33h-57.39v33h-12.19ZM1081.21,1205.89v-72.82h69.3v9.92h-57.11v23.84h32.58v9.71h-32.58v29.35h-12.19ZM1198.53,1150.29c0-6.61,1.18-11.14,3.55-13.57,2.36-2.43,6.88-3.65,13.54-3.65h50.36c6.57,0,11.03,1.21,13.4,3.62,2.37,2.41,3.55,6.95,3.55,13.61v38.37c0,6.71-1.18,11.25-3.55,13.64-2.37,2.39-6.83,3.58-13.4,3.58h-50.36c-6.66,0-11.17-1.22-13.54-3.65-2.37-2.43-3.55-6.96-3.55-13.57v-38.37ZM1210.66,1195.76h60.28v-52.77h-60.28v52.77ZM1330.94,1205.89v-72.82h58.69c5.47,0,9.4,1.11,11.81,3.34,2.41,2.23,3.62,5.82,3.62,10.78v16.26c0,4.92-1.21,8.49-3.62,10.71-2.41,2.23-6.35,3.34-11.81,3.34h-10.68l33.27,28.38h-18.05l-29.62-28.38h-21.42v28.38h-12.19ZM1384.88,1142.51h-41.75v25.56h41.75c3.03,0,5.1-.55,6.2-1.65,1.1-1.1,1.65-3.03,1.65-5.79v-10.61c0-2.76-.56-4.7-1.69-5.82-1.13-1.12-3.18-1.69-6.17-1.69ZM1500.35,1133.07c6.71,0,12.27.45,16.7,1.34,4.43.9,8.19,2.33,11.26,4.31,4.68,3.08,8.37,7.3,11.06,12.68,2.69,5.37,4.03,11.25,4.03,17.64,0,6.8-1.32,12.92-3.96,18.36-2.64,5.44-6.35,9.73-11.13,12.85-2.99,1.93-6.71,3.35-11.16,4.27-4.46.92-10.06,1.38-16.81,1.38h-40.09v-72.82h40.09ZM1498.62,1142.99h-26.18v52.77h26.18c11.8,0,20.14-2.07,25.01-6.2,4.87-4.13,7.3-10.98,7.3-20.53s-2.48-15.88-7.44-19.94c-4.96-4.06-13.25-6.1-24.87-6.1Z"/>
</svg>