<svg width="444" height="172" viewBox="0 0 444 172" fill="none" xmlns="http://www.w3.org/2000/svg">
<g clip-path="url(#clip0_3243_22757)">
<path d="M173.087 123.638C173.441 121.645 169.117 122.088 166.845 121.423C160.712 119.627 159.413 115.13 158.987 107.933C158.161 93.9378 159.934 78.2196 158.987 65.2406C158.204 54.4514 153.056 46.2611 143.881 42.8886C128.725 37.3235 112.265 43.8358 103.597 50.3414C101.512 51.905 99.9387 53.9827 97.1523 55.1725C97.0178 36.8483 97.4209 17.9899 96.952 0H96.549C87.55 2.45481 77.3809 4.7949 68.3494 7.04649C67.1036 7.35785 65.4972 7.22346 64.5235 8.25585V10.6714C69.2374 10.419 75.3383 9.87494 77.6168 13.29C80.2594 17.2524 79.0263 28.5236 79.0263 36.6484V86.3869C79.0263 94.9343 79.6068 103.397 78.8231 111.154C78.0954 118.358 74.5122 120.616 68.149 121.826C66.5855 122.121 63.5726 121.783 64.1204 123.838C64.4445 125.051 67.6544 124.445 69.3587 124.445C83.013 124.445 96.6996 125.169 110.446 124.445C111.875 124.369 112.593 124.808 112.865 123.638C113.281 121.829 108.75 121.911 106.62 121.423C103.41 120.685 101.306 119.483 99.9713 118.401C96.5031 111.604 97.5554 101.138 97.5554 91.4212V61.8191C103.338 56.1753 111.036 51.0202 120.516 50.3414C127.997 49.804 133.764 51.3934 137.032 56.1821C142.258 63.8315 140.458 78.4817 140.458 92.0239C140.458 100.254 141.861 113.075 138.042 118.001C136.4 120.115 132.426 121.236 129.178 121.826C127.627 122.108 124.604 121.793 125.149 123.838C125.476 125.061 128.686 124.445 130.388 124.445H167.852C169.996 124.445 172.828 125.087 173.087 123.638Z" fill="#ED2124"/>
<path d="M68.3453 101.286C67.9096 93.5974 62.1658 88.6289 56.6648 84.9745C46.8334 78.4488 36.615 75.7284 25.6458 70.4783C20.8202 68.1643 15.1882 64.0675 13.9654 59.4035C11.464 49.8763 21.3054 44.5045 29.4716 43.8982C44.0337 42.8133 52.5309 51.4428 56.2618 61.0129C56.9763 62.8484 56.8715 67.2108 60.2909 66.4502C60.7856 59.4167 60.3396 49.7155 59.4843 41.8825C55.5994 41.6826 56.1994 43.79 53.2391 43.8982C49.2791 44.0391 45.6139 41.9874 41.9618 41.2795C32.7073 39.4834 21.866 40.2405 14.7685 43.2918C6.46792 46.8642 -2.11787 55.0188 0.468693 67.2566C1.54725 72.3625 5.41232 76.5056 9.53313 79.5402C17.6173 85.492 28.5111 89.7725 38.1328 94.0364C44.214 96.7339 50.3314 99.8177 52.2326 105.717C55.5668 116.061 44.7255 121.865 36.12 122.429C18.0468 123.616 9.62491 114.442 5.30417 103.299C4.62883 101.562 4.4518 95.7832 0.668667 97.0584C0.334284 105.986 0.334284 116.32 0.668667 125.251C4.50753 125.752 3.89777 123.052 6.51057 122.629C8.75947 122.268 11.7197 123.333 14.1654 123.838C16.9289 124.412 19.6302 124.877 21.8201 125.251C38.6639 128.106 55.8685 124.317 63.7133 115.183C66.4538 111.987 68.7094 107.694 68.3453 101.286Z" fill="#ED2124"/>
<path d="M443.588 123.436C443.378 121.944 442.492 122.417 440.968 122.229C434.186 121.394 430.563 118.821 429.688 112.968C428.612 105.767 429.488 97.1901 429.488 89.0028C429.488 80.9504 430.016 72.4878 429.488 64.6382C428.563 50.8173 420.03 41.8012 406.527 40.6771C392.253 39.4873 383.579 45.3539 375.711 50.3422C373.432 51.7874 371.298 53.4066 368.659 54.5701C368.063 50.6044 368.856 45.2458 368.256 41.2801C362.995 41.7553 357.031 43.8791 351.34 45.3081C348.757 45.9538 345.626 46.8124 342.879 47.5236C340.427 48.1562 335.618 47.7596 336.234 51.1486C341.987 51.1584 348.35 51.1189 350.331 55.5763C351.675 58.6012 351.137 65.8446 351.137 70.8819C351.137 81.7827 351.137 92.5329 351.137 103.099C351.137 108.425 351.406 114.367 349.324 117.599C347.551 120.348 344.583 121.109 340.663 121.827C339.138 122.105 336.555 122.072 337.037 123.839C337.335 124.923 339.889 124.445 342.276 124.445H379.74C381.848 124.445 384.818 125.078 384.572 123.436C384.346 121.912 383.641 122.646 382.156 122.43C378.327 121.879 373.878 121.253 371.882 118.805C368.095 114.17 369.669 100.749 369.669 91.2183V60.8138C376.868 53.8919 391.834 45.7833 403.304 51.7514C413.051 56.8217 410.959 72.8026 410.959 87.5936C410.959 95.109 411.493 102.604 410.959 109.543C410.31 117.949 406.488 120.611 398.872 122.026C397.502 122.282 395.522 121.967 396.053 123.839C396.433 125.17 404.904 124.445 407.533 124.445H438.752C440.394 124.445 443.821 125.101 443.588 123.436Z" fill="#ED2124"/>
<path d="M203.899 47.1207C218.651 45.9834 227.689 53.2789 228.469 67.6607C213.095 67.5262 197.185 67.9257 182.144 67.4575C184.21 56.0353 191.065 48.1072 203.899 47.1207ZM289.701 47.1207C304.572 45.9737 313.318 53.3184 314.475 67.4575C299.503 67.7946 283.122 67.7946 268.15 67.4575C269.874 56.2058 276.896 48.1072 289.701 47.1207ZM339.049 94.8435C337.446 94.9614 334.555 99.3077 333.004 100.884C326.877 107.117 319.966 112.666 308.633 113.368C293.12 114.331 282.686 109.064 276.005 100.884C270.507 94.1584 267.904 84.7491 267.543 73.7006H337.236C337.217 59.1259 330.394 51.7451 320.92 46.5144C311.305 41.2115 297.464 39.5237 284.466 42.6896C272.802 45.5279 264.445 52.0501 258.682 60.4108C255.637 64.8253 253.581 69.3646 252.237 75.713C251.145 80.8686 251.126 84.8114 251.634 89.8092C251.781 91.2744 252.467 93.2604 252.237 94.6437C251.899 96.6887 248.418 99.8154 246.998 101.287C241.107 107.403 233.01 112.686 222.831 113.368C207.302 114.41 196.949 109.202 190.202 100.884C184.583 93.962 181.839 84.4343 181.741 73.7006C204.843 73.4351 228.905 74.2317 251.231 73.2977C251.49 67.952 250.395 63.0064 248.411 59.2015C243.271 49.3395 230.587 41.8768 216.183 41.0804C205.853 40.5069 197.605 42.221 190.805 45.3083C177.797 51.2076 166.281 64.4029 165.425 81.5537C163.855 113.043 190.602 132.76 222.628 124.645C237.17 120.962 246.225 111.457 254.05 100.681C261.377 117.51 276.1 127.982 300.176 125.851C310.875 124.907 319.396 121.335 326.159 115.783C332.771 110.356 338.974 103.778 341.665 95.6465C340.492 95.7941 339.633 94.8011 339.049 94.8435Z" fill="#ED2124"/>
<path d="M198.467 142.769C199.153 141.776 200.195 141.14 200.884 140.15C196.976 137.122 193.622 134.297 186.984 134.713C177.854 135.283 171.291 143.191 170.671 151.828C169.668 165.829 182.941 176.153 195.445 170.355C196.769 169.739 199.92 168.457 200.48 166.53C201.723 162.26 199.549 157.534 200.48 152.837H186.58V156.259H196.855V165.121C188.364 173.282 175.352 165.573 174.297 155.252C172.835 141.009 189.039 133.012 198.467 142.769Z" fill="#ED2124"/>
<path d="M101.984 153.842C98.2735 147.35 94.0937 141.326 90.3005 134.912H87.0779C86.6091 146.727 87.0126 159.414 86.8781 171.564H90.5037V142.565C92.9264 146.183 95.9394 150.88 98.5586 155.049C99.6142 156.727 100.296 159.818 102.991 159.076C106.722 154.016 109.833 147.258 113.465 142.768V171.564H117.29V134.912H113.868C109.741 141.057 106.2 147.789 101.984 153.842Z" fill="#ED2124"/>
<path d="M256.064 134.916C255.599 135.722 255.995 137.394 255.864 138.537H275.199C269.161 148.137 262.303 158.058 256.267 167.536C255.346 168.982 253.959 170.332 254.051 171.564H279.431V167.94H260.496C267.476 156.793 274.944 146.138 281.848 134.916" fill="#ED2124"/>
<path d="M297.157 134.915C296.059 135.223 293.659 134.237 293.531 135.518V171.564H297.357C297.068 159.571 297.17 147.186 297.157 134.915Z" fill="#ED2124"/>
<path d="M330.788 163.708C324.471 154.391 318.76 144.456 312.663 134.916H309.44C309.408 146.357 309.463 159.457 309.44 171.561H313.066V142.769C319.43 152.113 324.848 162.4 331.395 171.561H334.414V134.916H330.788" fill="#ED2124"/>
<path d="M369.866 167.94H350.931C351.069 163.308 350.666 158.137 351.134 153.843H367.247V150.218H350.931C351.069 146.325 350.666 141.897 351.134 138.338H369.866V134.916H347.509C347.04 146.727 347.44 159.415 347.309 171.561H370.07C370.063 170.292 370.148 168.933 369.866 167.94Z" fill="#ED2124"/>
<path d="M140.452 153.44C141.721 149.337 143.429 145.676 144.881 141.759C146.543 145.538 148.1 149.419 149.516 153.44H140.452ZM146.494 134.916H143.675C138.649 146.872 134.214 159.421 129.375 171.564H133.2C135.328 166.841 136.922 161.591 139.242 157.065H150.926C152.929 161.84 154.808 166.74 156.765 171.564H160.594C155.995 159.247 151.08 147.245 146.494 134.916Z" fill="#ED2124"/>
<path d="M223.643 153.44C224.912 149.337 226.62 145.676 228.072 141.759C229.734 145.538 231.291 149.419 232.704 153.44H223.643ZM229.685 134.916H226.862C221.837 146.872 217.405 159.421 212.562 171.564H216.391C218.516 166.841 220.112 161.591 222.433 157.065H234.117C236.12 161.84 237.999 166.74 239.956 171.564H243.785C239.182 159.247 234.271 147.245 229.685 134.916Z" fill="#ED2124"/>
</g>
<defs>
<clipPath id="clip0_3243_22757">
<rect width="444" height="172" fill="white"/>
</clipPath>
</defs>
</svg>
