<svg width="168" height="62" viewBox="0 0 168 62" fill="none" xmlns="http://www.w3.org/2000/svg">
<mask id="mask0_3840_32895" style="mask-type:luminance" maskUnits="userSpaceOnUse" x="1" y="0" width="166" height="62">
<path d="M166.895 0H1.10529V62H166.895V0Z" fill="white"/>
</mask>
<g mask="url(#mask0_3840_32895)">
<path d="M41.836 17.1502C41.836 15.8074 42.0438 14.5413 42.4178 13.3903C42.8334 12.201 43.3736 11.2035 44.0388 10.321C44.7037 9.43861 45.5349 8.74802 46.4494 8.24925C47.3636 7.75048 48.361 7.48193 49.4002 7.48193H60.0399V13.0067H49.4002C49.0262 13.0067 48.7353 13.0834 48.4028 13.2369C48.1117 13.3903 47.8208 13.6205 47.613 13.9275C47.3636 14.2344 47.1974 14.5797 47.0727 14.9634C46.9481 15.347 46.8649 16.6898 46.8649 17.1502C46.8649 17.6106 46.9481 18.0327 47.0727 18.4163C47.1974 18.8 47.3636 19.1453 47.613 19.4522C47.8623 19.7592 48.1117 19.9893 48.4028 20.1428C48.6937 20.2963 49.0262 20.373 49.4002 20.373H54.4707C55.5097 20.373 56.5073 20.6416 57.4215 21.1403C58.336 21.6391 59.1672 22.3298 59.8321 23.2122C60.5386 24.0946 61.0791 25.1304 61.4531 26.3197C61.8271 27.5092 62.0349 28.7751 62.0349 30.0798C62.0349 31.4225 61.8271 32.6887 61.4531 33.8397C61.0791 34.9906 60.497 36.0265 59.8321 36.9089C59.1256 37.7913 58.336 38.4819 57.4215 38.9808C56.5073 39.4794 55.5097 39.748 54.4707 39.748H41.836V34.2617H54.5123C54.8863 34.2617 55.1772 34.1849 55.5097 34.0314C55.8008 33.878 56.0917 33.6477 56.2995 33.3408C56.5488 33.0339 56.7151 32.6887 56.8397 32.3049C56.9644 31.9212 57.0475 30.5785 57.0475 30.1181C57.0475 29.6578 56.9644 29.2357 56.8397 28.852C56.7151 28.4682 56.5488 28.123 56.2995 27.8161C56.0501 27.5092 55.8008 27.279 55.5097 27.1255C55.2187 26.9721 54.8863 26.8952 54.5123 26.8952H49.4418C48.4028 26.8952 47.4052 26.6266 46.4909 26.128C45.5764 25.6293 44.7868 24.9387 44.0803 24.0563C43.3736 23.1737 42.8334 22.1379 42.4594 20.9485C42.0438 19.7592 41.836 18.4931 41.836 17.1502Z" fill="black"/>
<path d="M69.3504 36.1022C69.3504 36.6011 69.2673 37.0998 69.1011 37.5603C68.9348 38.0207 68.727 38.4042 68.4777 38.7113C68.1866 39.0565 67.8957 39.2868 67.5216 39.4786C67.1476 39.6703 66.7736 39.7855 66.358 39.7855C65.9424 39.7855 65.5682 39.6703 65.1942 39.4786C64.8202 39.2868 64.4877 39.0182 64.2383 38.7113C63.9474 38.3659 63.7397 37.9824 63.5734 37.5603C63.407 37.0998 63.3239 36.6394 63.3239 36.1022C63.3239 35.6036 63.407 35.1432 63.5734 34.6829C63.7397 34.2223 63.9474 33.8388 64.2383 33.5319C64.5293 33.1865 64.8202 32.9564 65.1942 32.7644C65.5682 32.5727 65.9424 32.4575 66.358 32.4575C66.7736 32.4575 67.1892 32.5727 67.5216 32.7644C67.8957 32.9564 68.1866 33.2248 68.4777 33.5319C68.7686 33.8771 68.9764 34.2608 69.1011 34.6829C69.2673 35.1432 69.3504 35.6036 69.3504 36.1022Z" fill="black"/>
<path d="M95.2439 23.6342C95.2439 25.1304 95.0776 26.55 94.7867 27.9313C94.4543 29.3123 94.0387 30.5785 93.4569 31.8063C92.8748 32.9956 92.2099 34.1083 91.4203 35.1058C90.6305 36.1031 89.7162 36.9472 88.7604 37.6378C87.8043 38.3285 86.7654 38.904 85.6431 39.2877C84.521 39.6712 83.3572 39.8632 82.152 39.8632C80.9466 39.8632 79.783 39.6712 78.6609 39.2877C77.5387 38.904 76.4997 38.3668 75.5436 37.6378C74.5878 36.9472 73.6733 36.1031 72.8837 35.1058C72.0941 34.1083 71.3876 33.0339 70.8056 31.8063C70.2238 30.6168 69.8082 29.3123 69.4758 27.9313C69.1433 26.55 69.0186 25.1304 69.0186 23.6342C69.0186 22.1379 69.1848 20.7183 69.4758 19.3371C69.8082 17.9559 70.2238 16.6515 70.8056 15.4621C71.3876 14.2728 72.0526 13.1985 72.8837 12.201C73.6733 11.2035 74.5878 10.3594 75.5436 9.66881C76.4997 8.97821 77.5387 8.44107 78.6609 8.05743C79.783 7.67376 80.9466 7.48193 82.152 7.48193C83.3572 7.48193 84.521 7.67376 85.6431 8.05743C86.7654 8.44107 87.8043 8.97821 88.7604 9.66881C89.7162 10.3594 90.5889 11.2035 91.4203 12.201C92.2099 13.1985 92.9164 14.2728 93.4569 15.4621C94.0387 16.6515 94.4543 17.9559 94.7867 19.3371C95.0776 20.7183 95.2439 22.1379 95.2439 23.6342ZM90.2149 23.6342C90.2149 22.253 90.0071 20.9869 89.5915 19.7592C89.176 18.5314 88.5941 17.4955 87.8874 16.6131C87.181 15.7307 86.3082 15.0017 85.3106 14.503C84.3132 13.9658 83.2741 13.7356 82.1936 13.7356C81.0715 13.7356 80.0323 14.0042 79.0349 14.503C78.0373 15.0017 77.2062 15.7307 76.4581 16.6131C75.7099 17.4955 75.1696 18.5698 74.7125 19.7592C74.2969 20.9869 74.0891 22.253 74.0891 23.6342C74.0891 25.0153 74.2969 26.2814 74.7125 27.4707C75.1281 28.6602 75.7099 29.7344 76.4581 30.6168C77.2062 31.4992 78.0373 32.2281 79.0349 32.7653C80.0323 33.3025 81.0715 33.5328 82.1936 33.5328C83.3156 33.5328 84.3548 33.2642 85.3106 32.7653C86.3082 32.2281 87.1394 31.5377 87.8874 30.6168C88.5941 29.7344 89.176 28.6602 89.5915 27.4707C90.0071 26.2814 90.2149 24.977 90.2149 23.6342Z" fill="black"/>
<path d="M101.977 36.1022C101.977 36.6011 101.894 37.0998 101.728 37.5603C101.562 38.0207 101.354 38.4042 101.104 38.7113C100.814 39.0565 100.522 39.2868 100.148 39.4786C99.7743 39.6703 99.4003 39.7855 98.9847 39.7855C98.5692 39.7855 98.1949 39.6703 97.8209 39.4786C97.4469 39.2868 97.1144 39.0182 96.8651 38.7113C96.5742 38.3659 96.3664 37.9824 96.2001 37.5603C96.0339 37.0998 95.9506 36.6394 95.9506 36.1022C95.9506 35.6036 96.0339 35.1432 96.2001 34.6829C96.3664 34.2223 96.5742 33.8388 96.8651 33.5319C97.156 33.1865 97.4469 32.9564 97.8209 32.7644C98.1949 32.5727 98.5692 32.4575 98.9847 32.4575C99.4003 32.4575 99.8159 32.5727 100.148 32.7644C100.522 32.9564 100.814 33.2248 101.104 33.5319C101.395 33.8771 101.603 34.2608 101.728 34.6829C101.894 35.1432 101.977 35.6036 101.977 36.1022Z" fill="black"/>
<path d="M111.578 39.7863H106.507V12.1626H95.9506V7.48193H122.134V12.1626H111.578V39.7863Z" fill="black"/>
<path d="M122.632 36.1022C122.632 36.6011 122.548 37.0998 122.382 37.5603C122.216 38.0207 122.008 38.4042 121.759 38.7113C121.468 39.0565 121.177 39.2868 120.803 39.4786C120.429 39.6703 120.055 39.7855 119.639 39.7855C119.223 39.7855 118.849 39.6703 118.475 39.4786C118.101 39.2868 117.769 39.0182 117.52 38.7113C117.229 38.3659 117.021 37.9824 116.855 37.5603C116.688 37.0998 116.605 36.6394 116.605 36.1022C116.605 35.6036 116.688 35.1432 116.855 34.6829C117.021 34.2223 117.229 33.8388 117.52 33.5319C117.81 33.1865 118.101 32.9564 118.475 32.7644C118.849 32.5727 119.223 32.4575 119.639 32.4575C120.055 32.4575 120.47 32.5727 120.803 32.7644C121.177 32.9564 121.468 33.2248 121.759 33.5319C122.05 33.8771 122.258 34.2608 122.382 34.6829C122.548 35.1432 122.632 35.6036 122.632 36.1022Z" fill="black"/>
<path d="M131.774 39.7863H126.704V7.48193H136.845C137.759 7.48193 138.673 7.59703 139.546 7.82723C140.419 8.05743 141.209 8.36435 141.957 8.78639C142.705 9.20841 143.37 9.66881 143.993 10.2443C144.617 10.8198 145.157 11.4337 145.573 12.1626C146.03 12.8532 146.363 13.6205 146.612 14.3879C146.861 15.1936 146.986 15.9992 146.986 16.8817C146.986 17.6874 146.861 18.4547 146.653 19.222C146.446 19.9893 146.113 20.7183 145.697 21.4089C145.282 22.0995 144.783 22.7133 144.201 23.2888C143.619 23.8643 142.954 24.3632 142.206 24.7852L149.106 39.8247H143.703L137.385 26.1663L131.733 26.2048V39.7863H131.774ZM131.774 12.1626V21.524H136.845C137.551 21.524 138.175 21.4089 138.798 21.1403C139.422 20.9101 139.962 20.5648 140.419 20.1428C140.876 19.7208 141.25 19.222 141.5 18.6465C141.749 18.071 141.915 17.4572 141.915 16.8433C141.915 16.1911 141.791 15.5772 141.5 15.0401C141.25 14.4646 140.876 13.9658 140.419 13.5438C139.962 13.1218 139.422 12.7765 138.798 12.5463C138.175 12.3161 137.551 12.1626 136.845 12.1626H131.774Z" fill="black"/>
<path d="M160.91 39.7849H149.896V34.9124H160.91C161.242 34.9124 161.533 34.7589 161.741 34.4903C161.99 34.2217 162.115 33.8763 162.115 33.4543C162.115 33.0324 161.99 31.8429 161.741 31.7278C161.491 31.6129 161.242 31.536 160.91 31.536H155.881C155.049 31.536 154.26 31.3443 153.512 30.9605C152.764 30.5768 152.14 30.0398 151.6 29.3875C151.059 28.7354 150.644 27.9296 150.311 27.0472C149.979 26.1648 149.854 25.2056 149.854 24.2081C149.854 23.2105 150.02 22.2513 150.311 21.369C150.644 20.4865 151.059 19.7192 151.6 19.067C152.14 18.4148 152.764 17.8776 153.512 17.494C154.26 17.1103 155.008 16.9185 155.881 16.9185H164.65V21.8294H155.881C155.548 21.8294 155.257 21.9828 155.049 22.2513C154.8 22.5199 154.675 22.8653 154.675 23.2874C154.675 23.7094 154.8 24.9753 155.049 25.2824C155.299 25.5893 155.548 25.7043 155.881 25.7043H160.91C161.741 25.7043 162.53 25.8579 163.237 26.2031C163.985 26.5483 164.608 27.0089 165.149 27.6227C165.689 28.2365 166.105 28.9271 166.437 29.7712C166.77 30.6153 166.894 31.536 166.894 32.5336C166.894 33.5311 166.728 34.4903 166.437 35.3727C166.105 36.2551 165.689 37.0224 165.149 37.6747C164.608 38.3268 163.985 38.864 163.237 39.2477C162.489 39.5929 161.741 39.7849 160.91 39.7849Z" fill="black"/>
<path d="M41.7518 47.4973C41.7518 47.1521 41.7933 46.8066 41.918 46.4614C42.0427 46.1545 42.2089 45.8859 42.4167 45.6173C42.6245 45.3873 42.8738 45.1953 43.165 45.0419C43.4559 44.8884 43.7468 44.8501 44.0792 44.8501H47.6119V46.6149H44.0792C43.9546 46.6149 43.8714 46.6532 43.7883 46.6917C43.7052 46.73 43.6221 46.8066 43.539 46.8835C43.4559 46.9603 43.4143 47.0369 43.3728 47.1521C43.3312 47.2672 43.3312 47.3821 43.3312 47.4973C43.3312 47.6124 43.3312 47.7276 43.3728 47.8427C43.4143 47.9576 43.4559 48.0345 43.539 48.1113C43.6221 48.1879 43.7052 48.2647 43.7883 48.3031C43.8714 48.3414 43.9961 48.3797 44.0792 48.3797H45.6171C45.9496 48.3797 46.2405 48.4565 46.5314 48.5716C46.8223 48.7251 47.0716 48.8785 47.2794 49.1471C47.4872 49.3772 47.6534 49.6458 47.7781 49.9912C47.9028 50.2981 47.9443 50.6433 47.9443 51.0271C47.9443 51.4108 47.9028 51.7177 47.7781 52.0629C47.6534 52.3698 47.4872 52.6384 47.2794 52.907C47.0716 53.1373 46.8223 53.329 46.5314 53.4825C46.2405 53.6359 45.9496 53.6742 45.6171 53.6742H42.1674V51.9095H45.6171C45.7418 51.9095 45.8249 51.8712 45.908 51.8326C45.9911 51.7943 46.0742 51.7177 46.1573 51.6409C46.2405 51.5643 46.282 51.4874 46.3236 51.3723C46.3651 51.2571 46.3651 51.1422 46.3651 51.0271C46.3651 50.9119 46.3651 50.7968 46.3236 50.6816C46.282 50.5667 46.2405 50.4899 46.1573 50.4133C46.0742 50.3364 45.9911 50.2598 45.908 50.2213C45.8249 50.183 45.7002 50.1447 45.6171 50.1447H44.0792C43.7468 50.1447 43.4559 50.0678 43.165 49.9527C42.8738 49.7992 42.6245 49.6075 42.4167 49.3772C42.2089 49.1471 42.0427 48.8785 41.918 48.5331C41.8349 48.1879 41.7518 47.881 41.7518 47.4973Z" fill="#263A8B"/>
<path d="M51.8121 53.6367H50.2745V44.8892H51.8121V53.6367Z" fill="#263A8B"/>
<path d="M60.7046 49.2628C60.7046 49.6466 60.663 50.0686 60.5799 50.4138C60.4968 50.7975 60.3721 51.1427 60.2059 51.4496C60.0397 51.7565 59.8319 52.0637 59.5825 52.332C59.3332 52.6006 59.0836 52.8309 58.7927 53.0227C58.5018 53.2147 58.2109 53.3681 57.8784 53.483C57.546 53.5982 57.2135 53.6367 56.8395 53.6367H54.512V44.8892H56.8395C57.2135 44.8892 57.546 44.9275 57.8784 45.0426C58.2109 45.1575 58.5018 45.3112 58.7927 45.503C59.0836 45.6947 59.3332 45.925 59.5825 46.1936C59.8319 46.4622 59.9981 46.7691 60.2059 47.076C60.3721 47.3829 60.4968 47.7281 60.5799 48.1118C60.663 48.457 60.7046 48.8408 60.7046 49.2628ZM59.1667 49.2628C59.1667 48.9176 59.1252 48.5722 59.0005 48.227C58.8758 47.9201 58.7096 47.6515 58.5018 47.3829C58.294 47.1526 58.0447 46.9608 57.7538 46.8074C57.4629 46.6539 57.172 46.6156 56.8395 46.6156H56.0497V51.8717H56.8395C57.172 51.8717 57.4629 51.7951 57.7538 51.6799C58.0447 51.5265 58.294 51.373 58.5018 51.1044C58.7096 50.8742 58.8758 50.6056 59.0005 50.2604C59.1252 49.9535 59.1667 49.608 59.1667 49.2628Z" fill="#263A8B"/>
<path d="M68.3524 53.6367H63.0323V44.8892H68.3524V46.1551H64.6117V48.8408H68.3524V50.1069H64.6117V52.2937H68.3524V53.6367Z" fill="#263A8B"/>
<path d="M82.6488 49.2633C82.6488 49.6468 82.6072 50.0689 82.5241 50.4143C82.441 50.7978 82.2747 51.1432 82.1085 51.4501C81.942 51.757 81.7343 52.0639 81.4849 52.3325C81.2356 52.6011 80.9862 52.8312 80.6953 53.0232C80.4044 53.2149 80.0719 53.3684 79.7395 53.4835C79.4068 53.5987 79.0328 53.637 78.6588 53.637C78.2847 53.637 77.9523 53.5987 77.5782 53.4835C77.2458 53.3684 76.9131 53.2149 76.6222 53.0232C76.3313 52.8312 76.0404 52.6011 75.791 52.3325C75.5417 52.0639 75.3339 51.757 75.1677 51.4501C75.0014 51.1432 74.8768 50.7595 74.7521 50.4143C74.669 50.0306 74.6272 49.6468 74.6272 49.2633C74.6272 48.8796 74.669 48.4575 74.7521 48.1123C74.8352 47.7286 75.0014 47.3832 75.1677 47.0763C75.3339 46.7694 75.5417 46.4625 75.791 46.1939C76.0404 45.9253 76.2897 45.6952 76.6222 45.5032C76.9131 45.3115 77.2458 45.158 77.5782 45.0812C77.9107 44.9663 78.2847 44.9277 78.6588 44.9277C79.0328 44.9277 79.3652 44.9663 79.7395 45.0812C80.0719 45.1963 80.4044 45.3498 80.6953 45.5032C80.9862 45.6952 81.2771 45.9253 81.4849 46.1939C81.7343 46.4625 81.942 46.7694 82.1085 47.0763C82.2747 47.3832 82.3994 47.7286 82.5241 48.1123C82.6072 48.4575 82.6488 48.8413 82.6488 49.2633ZM81.1109 49.2633C81.1109 48.8796 81.0278 48.5344 80.9031 48.2272C80.7784 47.882 80.6122 47.6134 80.3628 47.3834C80.1551 47.1531 79.8642 46.9613 79.5732 46.8077C79.2821 46.6542 78.9497 46.5776 78.6172 46.5776C78.2847 46.5776 77.9523 46.6542 77.6614 46.8077C77.3705 46.9613 77.1211 47.1531 76.8715 47.3834C76.6638 47.6134 76.456 47.9203 76.3313 48.2272C76.2066 48.5727 76.1235 48.9179 76.1235 49.2633C76.1235 49.6468 76.2066 49.9922 76.3313 50.2991C76.456 50.606 76.6222 50.9129 76.8715 51.1432C77.0796 51.3733 77.3705 51.5653 77.6614 51.7187C77.9523 51.8722 78.2847 51.9488 78.6172 51.9488C78.9497 51.9488 79.2821 51.8722 79.5732 51.7187C79.8642 51.5653 80.1551 51.3733 80.3628 51.1432C80.5706 50.9129 80.7784 50.606 80.9031 50.2991C81.0693 49.9537 81.1109 49.6085 81.1109 49.2633Z" fill="#263A8B"/>
<path d="M86.5132 53.6367H84.9755V44.8892H90.3785V46.1551H86.5132V48.8408H90.3785V50.1069H86.5132V53.6367Z" fill="#263A8B"/>
<path d="M100.105 53.6367H98.5674V46.3085H96.2399V44.8892H102.433V46.3085H100.105V53.6367Z" fill="#263A8B"/>
<path d="M106.048 53.6367H104.51V44.8892H106.048V48.8408H109.124V44.8892H110.661V53.6367H109.165V50.1452H106.089V53.6367H106.048Z" fill="#263A8B"/>
<path d="M118.726 53.6367H113.406V44.8892H118.726V46.1551H114.985V48.8408H118.726V50.1069H114.985V52.2937H118.726V53.6367Z" fill="#263A8B"/>
<path d="M127.037 53.6367H125.499V44.8892H128.616C128.907 44.8892 129.157 44.9275 129.448 45.0041C129.697 45.0809 129.946 45.1575 130.196 45.3112C130.445 45.4261 130.653 45.5796 130.819 45.7716C131.027 45.9633 131.152 46.1551 131.318 46.347C131.443 46.5771 131.567 46.7691 131.651 47.0377C131.734 47.2677 131.775 47.5363 131.775 47.8049C131.775 48.0352 131.734 48.3036 131.692 48.5339C131.609 48.7642 131.526 48.9942 131.401 49.1862C131.276 49.378 131.11 49.5697 130.944 49.7617C130.778 49.9535 130.57 50.1069 130.32 50.222L131.941 53.7133H130.279L128.824 50.6824H127.079V53.6367H127.037ZM127.037 46.3085V49.1862H128.575C128.783 49.1862 128.99 49.1477 129.157 49.0711C129.365 48.9942 129.489 48.8791 129.656 48.7642C129.822 48.649 129.905 48.4956 129.988 48.3036C130.071 48.1118 130.113 47.9584 130.113 47.7666C130.113 47.5746 130.071 47.3829 129.988 47.2294C129.905 47.0377 129.78 46.8842 129.656 46.7691C129.531 46.6539 129.365 46.5388 129.157 46.4622C128.99 46.3854 128.783 46.347 128.575 46.347H127.037V46.3085Z" fill="#263A8B"/>
<path d="M141.542 49.2611C141.542 49.6446 141.5 50.0667 141.417 50.4121C141.334 50.7959 141.168 51.1411 141.002 51.448C140.836 51.7549 140.628 52.0618 140.378 52.3304C140.129 52.5989 139.88 52.8292 139.589 53.021C139.298 53.2127 138.965 53.3662 138.633 53.4813C138.3 53.5965 137.926 53.6348 137.552 53.6348C137.178 53.6348 136.846 53.5965 136.472 53.4813C136.139 53.3662 135.807 53.2127 135.516 53.021C135.225 52.8292 134.934 52.5989 134.685 52.3304C134.435 52.0618 134.227 51.7549 134.061 51.448C133.895 51.1411 133.77 50.7573 133.645 50.4121C133.562 50.0284 133.521 49.6446 133.521 49.2611C133.521 48.8774 133.562 48.4554 133.645 48.1101C133.728 47.7264 133.895 47.3812 134.061 47.0743C134.227 46.7672 134.435 46.4603 134.685 46.1917C134.934 45.9233 135.183 45.693 135.516 45.5013C135.807 45.3093 136.139 45.1558 136.472 45.0792C136.804 44.9641 137.178 44.9258 137.552 44.9258C137.926 44.9258 138.259 44.9641 138.633 45.0792C138.965 45.1942 139.298 45.3478 139.589 45.5013C139.88 45.693 140.171 45.9233 140.378 46.1917C140.628 46.4603 140.836 46.7672 141.002 47.0743C141.168 47.3812 141.293 47.7264 141.417 48.1101C141.5 48.4554 141.542 48.8391 141.542 49.2611ZM140.004 49.2611C140.004 48.8774 139.921 48.5322 139.797 48.2253C139.672 47.8799 139.506 47.6113 139.256 47.3812C139.048 47.1509 138.757 46.9592 138.467 46.8057C138.176 46.6523 137.843 46.5754 137.511 46.5754C137.178 46.5754 136.846 46.6523 136.555 46.8057C136.264 46.9592 136.014 47.1509 135.765 47.3812C135.557 47.6113 135.349 47.9182 135.225 48.2253C135.1 48.5705 135.017 48.9157 135.017 49.2611C135.017 49.6446 135.1 49.9901 135.225 50.297C135.349 50.6039 135.516 50.9108 135.765 51.1411C135.973 51.3713 136.264 51.5631 136.555 51.7166C136.846 51.87 137.178 51.9468 137.511 51.9468C137.843 51.9468 138.176 51.87 138.467 51.7166C138.757 51.5631 139.048 51.3713 139.256 51.1411C139.464 50.9108 139.672 50.6039 139.797 50.297C139.963 49.9518 140.004 49.6063 140.004 49.2611Z" fill="#263A8B"/>
<path d="M158.79 49.2628C158.79 49.6466 158.749 50.0686 158.666 50.4138C158.583 50.7975 158.458 51.1427 158.292 51.4496C158.125 51.7565 157.917 52.0637 157.668 52.332C157.419 52.6006 157.169 52.8309 156.878 53.0227C156.588 53.2147 156.297 53.3681 155.964 53.483C155.632 53.5982 155.299 53.6367 154.925 53.6367H152.598V44.8892H154.925C155.299 44.8892 155.632 44.9275 155.964 45.0426C156.297 45.1575 156.588 45.3112 156.878 45.503C157.169 45.6947 157.419 45.925 157.668 46.1936C157.917 46.4622 158.084 46.7691 158.292 47.076C158.458 47.3829 158.583 47.7281 158.666 48.1118C158.749 48.457 158.79 48.8408 158.79 49.2628ZM157.252 49.2628C157.252 48.9176 157.211 48.5722 157.086 48.227C156.962 47.9201 156.795 47.6515 156.588 47.3829C156.38 47.1526 156.13 46.9608 155.839 46.8074C155.548 46.6539 155.257 46.6156 154.925 46.6156H154.135V51.8717H154.925C155.257 51.8717 155.548 51.7951 155.839 51.6799C156.13 51.5265 156.38 51.373 156.588 51.1044C156.795 50.8742 156.962 50.6056 157.086 50.2604C157.169 49.9535 157.252 49.608 157.252 49.2628Z" fill="#263A8B"/>
<path d="M160.661 47.4973C160.661 47.1521 160.702 46.8066 160.827 46.4614C160.952 46.1545 161.118 45.8859 161.326 45.6173C161.534 45.3873 161.783 45.1953 162.074 45.0419C162.365 44.8884 162.656 44.8501 162.988 44.8501H166.521V46.6149H162.988C162.864 46.6149 162.781 46.6532 162.697 46.6917C162.614 46.73 162.531 46.8066 162.448 46.8835C162.365 46.9603 162.323 47.0369 162.282 47.1521C162.24 47.2672 162.24 47.3821 162.24 47.4973C162.24 47.6124 162.24 47.7276 162.282 47.8427C162.323 47.9576 162.365 48.0345 162.448 48.1113C162.531 48.1879 162.614 48.2647 162.697 48.3031C162.781 48.3414 162.905 48.3797 162.988 48.3797H164.526C164.859 48.3797 165.15 48.4565 165.44 48.5716C165.731 48.7251 165.981 48.8785 166.189 49.1471C166.397 49.3772 166.563 49.6458 166.687 49.9912C166.812 50.2981 166.854 50.6433 166.854 51.0271C166.854 51.4108 166.812 51.7177 166.687 52.0629C166.563 52.3698 166.397 52.6384 166.189 52.907C165.981 53.1373 165.731 53.329 165.44 53.4825C165.15 53.6359 164.859 53.6742 164.526 53.6742H161.076V51.9095H164.526C164.651 51.9095 164.734 51.8712 164.817 51.8326C164.9 51.7943 164.983 51.7177 165.066 51.6409C165.15 51.5643 165.191 51.4874 165.233 51.3723C165.274 51.2571 165.274 51.1422 165.274 51.0271C165.274 50.9119 165.274 50.7968 165.233 50.6816C165.191 50.5667 165.15 50.4899 165.066 50.4133C164.983 50.3364 164.9 50.2598 164.817 50.2213C164.734 50.183 164.609 50.1447 164.526 50.1447H162.988C162.656 50.1447 162.365 50.0678 162.074 49.9527C161.783 49.7992 161.534 49.6075 161.326 49.3772C161.118 49.1471 160.952 48.8785 160.827 48.5331C160.702 48.1879 160.661 47.881 160.661 47.4973Z" fill="#263A8B"/>
<path d="M39.0089 61.9246H47.0303C41.5442 58.932 36.5984 55.1336 31.9434 51.0669C27.5379 47.2302 23.257 43.1634 20.223 38.2141C18.228 35.0297 16.4825 31.4233 16.1915 27.7017C15.6512 21.7166 18.3112 15.6164 23.1323 11.7414C28.2859 7.55946 35.1436 4.83545 41.5026 2.76367C36.4737 3.95303 31.4447 5.33421 26.8729 7.63619C20.6802 10.7439 15.194 15.885 13.781 22.5991C11.0794 35.6052 21.262 47.115 30.738 55.2105C32.6084 56.8218 39.0089 61.9246 39.0089 61.9246Z" fill="#263A8B"/>
<path d="M42.8332 0C40.4226 0.575495 37.638 1.30446 35.3521 2.03342C32.6506 2.87746 29.9907 3.91337 27.4139 5.06436C20.3899 8.21039 14.3634 12.5458 9.8748 18.4158C3.84835 26.3192 3.51586 36.9852 6.30049 45.9628C8.04607 51.6411 11.7035 56.974 15.1531 61.9232C12.6594 61.9232 9.50073 61.9617 7.00704 61.9617C7.00704 61.9617 4.80427 56.3985 4.5549 55.7462C3.80679 53.5594 3.18338 51.3725 2.68462 49.1089C1.72871 44.7735 1.10529 40.2847 1.10529 35.7957C1.10529 28.3911 4.05616 21.6002 9.29294 15.9988C14.4466 10.5124 21.3458 6.59901 28.619 3.79827C33.1493 2.03342 37.9705 0.767327 42.8332 0Z" fill="#263A8B"/>
<path d="M29.4924 61.9627H22.1776C18.3953 58.2026 14.9457 53.2917 11.6208 47.7671H16.6913C19.6837 52.5245 23.923 57.2436 29.4924 61.9627Z" fill="black"/>
<path d="M15.7766 45.8472H10.8723C9.29294 41.5502 8.50326 37.5986 8.00452 34.2607H11.1632C11.8698 37.9055 13.366 41.627 15.7766 45.8472Z" fill="black"/>
<path d="M10.9549 32.9191L7.83776 32.8808C7.54684 30.08 7.92088 27.1642 8.50276 25.0923L10.8718 25.4377C10.4146 27.8163 10.6224 30.3869 10.9549 32.9191Z" fill="black"/>
<path d="M11.1217 24.2469L8.83575 23.9016C9.37605 21.6764 10.4982 19.9115 11.4126 18.7222L12.7841 19.1442C11.8282 20.7939 11.4541 22.4052 11.1217 24.2469Z" fill="black"/>
<path d="M13.4069 18.1848L12.1601 17.6861C13.116 16.5351 14.0304 15.4992 15.1941 14.54L15.7344 15.1539C14.9032 16.0363 14.1966 16.9955 13.4069 18.1848Z" fill="black"/>
<path d="M16.2352 14.4642L15.7781 13.9654C16.5262 13.2364 17.2327 12.6609 18.0224 12.0854L18.2302 12.354C17.5237 13.0446 16.8587 13.6585 16.2352 14.4642Z" fill="black"/>
<path d="M18.5612 12.0461L18.395 11.8159C18.8521 11.4322 19.3093 11.1253 19.7665 10.8184L19.8496 10.8951C19.4756 11.2404 19.0184 11.624 18.5612 12.0461Z" fill="black"/>
<path d="M142.955 53.6367L145.947 44.8892H146.903L149.896 53.6367H148.316L146.446 47.6898L144.576 53.6367H142.955ZM144.368 52.4089V51.1044H148.483V52.4089H144.368Z" fill="#263A8B"/>
</g>
</svg>
