<svg width="1152" height="1152" viewBox="0 0 1152 1152" fill="none" xmlns="http://www.w3.org/2000/svg">
<g clip-path="url(#clip0_1003_26737)">
<path d="M817.203 506.544C815.851 509.672 814.291 512.904 812.626 516.032C800.249 540.117 780.695 565.14 750.947 589.954C748.035 592.456 744.915 594.646 741.69 596.731C752.299 577.025 764.261 538.136 750.115 474.119C750.115 474.119 726.296 356.824 584.944 341.498C587.025 339.725 689.788 254.856 783.815 330.029C797.857 341.185 808.986 355.573 816.267 372.046C828.644 400.093 842.062 450.243 817.203 506.544Z" fill="url(#paint0_linear_1003_26737)"/>
<path d="M582.76 592.977C600.546 597.669 617.5 601.006 632.998 603.508C617.5 601.11 600.546 597.669 582.76 592.977Z" fill="#CAFF15"/>
<path d="M358.302 381.43C391.794 361.933 429.135 366.521 457.322 375.487C483.741 383.932 507.247 399.78 525.242 420.945C525.97 421.779 526.698 422.613 527.322 423.448C549.164 450.139 562.79 477.455 571.111 502.895C580.68 504.355 590.561 505.502 600.754 506.023C615.732 506.857 631.23 506.44 647.143 504.668C655.88 503.729 664.825 502.27 673.875 500.393C668.258 484.545 661.497 468.072 653.176 451.181C646.311 437.002 638.302 422.405 629.253 407.6C573.503 316.371 481.765 298.959 481.765 298.959C400.323 286.343 358.823 337.327 339.58 374.861C334.588 384.558 332.403 395.193 332.924 405.619C350.086 384.558 358.302 381.43 358.302 381.43Z" fill="url(#paint1_linear_1003_26737)"/>
<path d="M339.06 465.258C339.476 465.884 339.892 466.405 340.308 467.031C339.892 466.405 339.476 465.78 339.06 465.258Z" fill="url(#paint2_linear_1003_26737)"/>
<path d="M337.292 462.858C337.708 463.38 338.124 464.005 338.54 464.631C338.124 464.005 337.708 463.484 337.292 462.858Z" fill="url(#paint3_linear_1003_26737)"/>
<path d="M335.732 460.667C336.148 461.189 336.46 461.814 336.876 462.336C336.564 461.71 336.148 461.189 335.732 460.667Z" fill="url(#paint4_linear_1003_26737)"/>
<path d="M606.059 705.372C605.123 705.789 604.291 706.206 603.354 706.623C604.291 706.206 605.227 705.789 606.059 705.372Z" fill="url(#paint5_linear_1003_26737)"/>
<path d="M340.829 467.655C341.245 468.28 341.661 468.802 342.181 469.427C341.765 468.906 341.245 468.28 340.829 467.655Z" fill="url(#paint6_linear_1003_26737)"/>
<path d="M334.276 458.584C334.588 459.105 335.004 459.627 335.42 460.148C335.004 459.627 334.692 459.105 334.276 458.584Z" fill="url(#paint7_linear_1003_26737)"/>
<path d="M602.418 707.143C601.378 707.664 600.234 708.186 599.09 708.603C600.234 708.081 601.378 707.56 602.418 707.143Z" fill="url(#paint8_linear_1003_26737)"/>
<path d="M329.595 451.388C329.907 451.805 330.115 452.327 330.427 452.744C330.219 452.327 329.907 451.805 329.595 451.388Z" fill="url(#paint9_linear_1003_26737)"/>
<path d="M328.659 449.93C328.867 450.347 329.179 450.764 329.491 451.181C329.283 450.764 328.971 450.347 328.659 449.93Z" fill="url(#paint10_linear_1003_26737)"/>
<path d="M332.924 456.604C333.236 457.126 333.652 457.647 333.964 458.168C333.652 457.543 333.34 457.022 332.924 456.604Z" fill="url(#paint11_linear_1003_26737)"/>
<path d="M330.635 452.953C330.948 453.37 331.26 453.891 331.572 454.412C331.26 453.891 330.948 453.474 330.635 452.953Z" fill="url(#paint12_linear_1003_26737)"/>
<path d="M342.805 470.261C343.221 470.887 343.741 471.512 344.157 472.138C343.637 471.408 343.221 470.887 342.805 470.261Z" fill="url(#paint13_linear_1003_26737)"/>
<path d="M379.001 511.134C379.625 511.759 380.353 512.489 381.081 513.115C380.353 512.489 379.729 511.864 379.001 511.134Z" fill="url(#paint14_linear_1003_26737)"/>
<path d="M365.583 497.371C366.208 497.996 366.832 498.726 367.456 499.352C366.832 498.622 366.208 497.996 365.583 497.371Z" fill="url(#paint15_linear_1003_26737)"/>
<path d="M390.546 521.974C391.274 522.599 392.003 523.225 392.731 523.955C392.003 523.329 391.274 522.599 390.546 521.974Z" fill="url(#paint16_linear_1003_26737)"/>
<path d="M382.745 514.679C383.473 515.304 384.098 516.034 384.826 516.66C384.098 516.034 383.369 515.409 382.745 514.679Z" fill="url(#paint17_linear_1003_26737)"/>
<path d="M386.594 518.326C387.322 518.951 388.05 519.681 388.778 520.307C387.946 519.681 387.218 518.951 386.594 518.326Z" fill="url(#paint18_linear_1003_26737)"/>
<path d="M351.646 481.417C352.166 482.043 352.686 482.668 353.31 483.398C352.686 482.772 352.166 482.147 351.646 481.417Z" fill="url(#paint19_linear_1003_26737)"/>
<path d="M354.142 484.439C354.662 485.065 355.286 485.69 355.806 486.42C355.286 485.794 354.766 485.169 354.142 484.439Z" fill="url(#paint20_linear_1003_26737)"/>
<path d="M356.846 487.569C357.366 488.194 357.991 488.82 358.511 489.55C357.991 488.924 357.366 488.194 356.846 487.569Z" fill="url(#paint21_linear_1003_26737)"/>
<path d="M362.567 494.032C363.191 494.657 363.711 495.387 364.335 496.013C363.711 495.283 363.087 494.657 362.567 494.032Z" fill="url(#paint22_linear_1003_26737)"/>
<path d="M359.655 490.801C360.279 491.426 360.799 492.156 361.423 492.782C360.799 492.052 360.175 491.426 359.655 490.801Z" fill="url(#paint23_linear_1003_26737)"/>
<path d="M639.238 687.649C638.614 688.066 637.886 688.483 637.158 688.901C637.886 688.483 638.51 688.066 639.238 687.649Z" fill="url(#paint24_linear_1003_26737)"/>
<path d="M673.251 664.084C672.731 664.501 672.21 664.918 671.586 665.335C672.21 665.022 672.731 664.501 673.251 664.084Z" fill="url(#paint25_linear_1003_26737)"/>
<path d="M676.059 661.791C675.435 662.312 674.707 662.937 673.979 663.459C674.707 662.937 675.435 662.416 676.059 661.791Z" fill="url(#paint26_linear_1003_26737)"/>
<path d="M661.497 673.051C660.873 673.468 660.353 673.885 659.729 674.302C660.353 673.885 660.977 673.468 661.497 673.051Z" fill="url(#paint27_linear_1003_26737)"/>
<path d="M665.034 670.444C664.202 671.069 663.473 671.591 662.641 672.216C663.473 671.695 664.306 671.069 665.034 670.444Z" fill="url(#paint28_linear_1003_26737)"/>
<path d="M684.796 654.178C684.276 654.7 683.652 655.221 683.028 655.742C683.756 655.221 684.276 654.7 684.796 654.178Z" fill="url(#paint29_linear_1003_26737)"/>
<path d="M688.436 650.843C687.916 651.364 687.396 651.885 686.876 652.302C687.396 651.781 687.916 651.364 688.436 650.843Z" fill="url(#paint30_linear_1003_26737)"/>
<path d="M686.564 652.614C686.044 653.031 685.628 653.552 685.108 653.969C685.524 653.552 686.044 653.031 686.564 652.614Z" fill="url(#paint31_linear_1003_26737)"/>
<path d="M689.892 649.382C689.372 649.903 688.956 650.32 688.436 650.841C688.956 650.32 689.372 649.799 689.892 649.382Z" fill="url(#paint32_linear_1003_26737)"/>
<path d="M658.585 675.138C657.753 675.763 656.817 676.389 655.985 676.91C656.921 676.285 657.753 675.763 658.585 675.138Z" fill="url(#paint33_linear_1003_26737)"/>
<path d="M680.739 657.83C680.115 658.351 679.491 658.873 678.867 659.498C679.491 658.977 680.115 658.456 680.739 657.83Z" fill="url(#paint34_linear_1003_26737)"/>
<path d="M613.132 701.931C612.508 702.244 611.78 702.557 611.156 702.87C611.884 702.557 612.508 702.244 613.132 701.931Z" fill="url(#paint35_linear_1003_26737)"/>
<path d="M623.117 696.718C622.701 696.927 622.285 697.135 621.973 697.344C622.389 697.135 622.805 696.927 623.117 696.718Z" fill="url(#paint36_linear_1003_26737)"/>
<path d="M629.358 693.38C629.15 693.484 628.838 693.693 628.63 693.797C628.942 693.588 629.15 693.484 629.358 693.38Z" fill="url(#paint37_linear_1003_26737)"/>
<path d="M616.564 700.161C616.044 700.473 615.42 700.682 614.9 700.995C615.524 700.786 616.044 700.473 616.564 700.161Z" fill="url(#paint38_linear_1003_26737)"/>
<path d="M619.892 698.489C619.372 698.698 618.956 699.011 618.436 699.219C618.956 699.011 619.476 698.698 619.892 698.489Z" fill="url(#paint39_linear_1003_26737)"/>
<path d="M643.815 684.832C642.775 685.458 641.839 686.083 640.799 686.709C641.839 686.083 642.879 685.458 643.815 684.832Z" fill="url(#paint40_linear_1003_26737)"/>
<path d="M647.352 682.643C646.728 683.06 646.104 683.477 645.479 683.894C646 683.477 646.624 683.06 647.352 682.643Z" fill="url(#paint41_linear_1003_26737)"/>
<path d="M632.374 691.609C632.166 691.714 632.062 691.818 631.854 691.922C632.062 691.818 632.27 691.714 632.374 691.609Z" fill="url(#paint42_linear_1003_26737)"/>
<path d="M651.512 679.93C650.576 680.555 649.64 681.181 648.704 681.806C649.744 681.181 650.68 680.555 651.512 679.93Z" fill="url(#paint43_linear_1003_26737)"/>
<path d="M635.286 689.942C635.182 689.942 635.078 690.047 634.974 690.047C635.078 690.047 635.182 690.047 635.286 689.942Z" fill="url(#paint44_linear_1003_26737)"/>
<path d="M394.603 525.625C395.331 526.251 396.059 526.877 396.787 527.606C396.059 526.981 395.331 526.355 394.603 525.625Z" fill="url(#paint45_linear_1003_26737)"/>
<path d="M432.463 555.547C433.295 556.173 434.231 556.799 435.063 557.32C434.231 556.799 433.399 556.173 432.463 555.547Z" fill="url(#paint46_linear_1003_26737)"/>
<path d="M460.962 574.107C461.899 574.628 462.731 575.15 463.667 575.671C462.731 575.15 461.794 574.628 460.962 574.107Z" fill="url(#paint47_linear_1003_26737)"/>
<path d="M417.277 544.287C418.109 544.913 418.942 545.538 419.67 546.164C418.838 545.538 418.005 544.913 417.277 544.287Z" fill="url(#paint48_linear_1003_26737)"/>
<path d="M545.108 613.934C545.316 614.038 545.524 614.038 545.628 614.143C545.524 614.143 545.316 614.038 545.108 613.934Z" fill="url(#paint49_linear_1003_26737)"/>
<path d="M377.441 509.566C376.817 508.94 376.089 508.211 375.465 507.585C376.089 508.315 376.817 508.94 377.441 509.566Z" fill="url(#paint50_linear_1003_26737)"/>
<path d="M507.248 598.397C508.08 598.814 508.912 599.127 509.744 599.544C508.912 599.231 508.08 598.814 507.248 598.397Z" fill="url(#paint51_linear_1003_26737)"/>
<path d="M514.528 601.735C515.36 602.048 516.088 602.465 516.921 602.778C516.088 602.361 515.256 602.048 514.528 601.735Z" fill="url(#paint52_linear_1003_26737)"/>
<path d="M443.384 563.053C444.216 563.678 445.152 564.2 445.985 564.825C445.152 564.2 444.32 563.574 443.384 563.053Z" fill="url(#paint53_linear_1003_26737)"/>
<path d="M529.506 607.99C530.13 608.198 530.754 608.511 531.379 608.72C530.65 608.511 530.026 608.198 529.506 607.99Z" fill="url(#paint54_linear_1003_26737)"/>
<path d="M454.929 570.455C455.866 570.976 456.698 571.602 457.634 572.123C456.802 571.498 455.866 570.976 454.929 570.455Z" fill="url(#paint55_linear_1003_26737)"/>
<path d="M437.872 559.303C438.704 559.928 439.64 560.45 440.472 561.075C439.64 560.45 438.808 559.928 437.872 559.303Z" fill="url(#paint56_linear_1003_26737)"/>
<path d="M479.789 584.845C480.725 585.366 481.661 585.783 482.493 586.304C481.661 585.783 480.725 585.262 479.789 584.845Z" fill="url(#paint57_linear_1003_26737)"/>
<path d="M328.659 449.932C326.475 446.387 325.435 444.51 325.435 444.406C325.539 444.614 326.579 446.595 328.659 449.932Z" fill="url(#paint58_linear_1003_26737)"/>
<path d="M449.105 566.705C449.937 567.226 450.873 567.851 451.809 568.373C450.873 567.851 450.041 567.33 449.105 566.705Z" fill="url(#paint59_linear_1003_26737)"/>
<path d="M398.867 529.376C399.595 530.002 400.427 530.627 401.155 531.357C400.323 530.627 399.595 530.002 398.867 529.376Z" fill="url(#paint60_linear_1003_26737)"/>
<path d="M403.236 533.028C403.964 533.653 404.796 534.279 405.524 534.905C404.796 534.383 403.964 533.758 403.236 533.028Z" fill="url(#paint61_linear_1003_26737)"/>
<path d="M341.453 503.938C398.451 635.933 578.288 717.466 578.288 717.466C585.465 714.547 592.225 711.732 598.674 708.812C592.225 711.732 585.465 714.651 578.288 717.466C578.288 717.57 398.451 636.037 341.453 503.938Z" fill="url(#paint62_linear_1003_26737)"/>
<path d="M699.15 638.957C699.046 633.014 698.734 626.862 698.318 620.502C698.11 616.958 697.798 613.413 697.485 609.868C695.405 609.868 693.429 609.868 691.453 609.763C683.964 609.451 675.435 608.825 665.97 607.887C655.881 606.948 644.855 605.489 632.998 603.612C617.396 601.11 600.546 597.669 582.76 593.082C582.552 596.626 582.24 599.963 581.928 602.986C580.472 616.749 578.288 624.777 578.288 624.881C645.376 649.487 699.15 638.957 699.15 638.957Z" fill="#870313"/>
<path d="M412.389 540.534C413.221 541.159 413.949 541.785 414.781 542.41C414.053 541.785 413.221 541.159 412.389 540.534Z" fill="url(#paint63_linear_1003_26737)"/>
<path d="M473.34 581.3C474.276 581.822 475.212 582.343 476.044 582.76C475.212 582.239 474.276 581.717 473.34 581.3Z" fill="url(#paint64_linear_1003_26737)"/>
<path d="M648.704 681.704C648.184 682.017 647.768 682.33 647.248 682.642C647.768 682.33 648.288 682.017 648.704 681.704Z" fill="url(#paint65_linear_1003_26737)"/>
<path d="M636.118 689.522C636.43 689.314 636.846 689.105 637.158 688.896C636.534 689.314 635.91 689.626 635.286 690.043C635.598 689.835 635.806 689.626 636.118 689.522Z" fill="url(#paint66_linear_1003_26737)"/>
<path d="M502.775 596.314C504.231 597.044 505.687 597.669 507.248 598.399C505.687 597.774 504.231 597.044 502.775 596.314Z" fill="url(#paint67_linear_1003_26737)"/>
<path d="M634.974 690.148C634.142 690.669 633.206 691.191 632.374 691.712C633.31 691.191 634.142 690.669 634.974 690.148Z" fill="url(#paint68_linear_1003_26737)"/>
<path d="M495.91 593.082C497.367 593.811 498.719 594.437 500.175 595.167C498.719 594.437 497.367 593.707 495.91 593.082Z" fill="url(#paint69_linear_1003_26737)"/>
<path d="M631.854 691.922C631.022 692.339 630.19 692.86 629.357 693.277C630.19 692.86 631.022 692.443 631.854 691.922Z" fill="url(#paint70_linear_1003_26737)"/>
<path d="M676.683 661.375C676.475 661.584 676.267 661.688 676.059 661.896C676.267 661.688 676.475 661.479 676.683 661.375Z" fill="url(#paint71_linear_1003_26737)"/>
<path d="M375.464 507.587C374.944 507.066 374.424 506.544 374.008 506.127C374.424 506.649 374.944 507.17 375.464 507.587Z" fill="url(#paint72_linear_1003_26737)"/>
<path d="M681.155 657.517C681.051 657.621 680.843 657.726 680.739 657.83C680.947 657.726 681.051 657.621 681.155 657.517Z" fill="url(#paint73_linear_1003_26737)"/>
<path d="M683.132 655.743C683.028 655.847 682.82 655.952 682.716 656.16C682.82 656.056 683.028 655.847 683.132 655.743Z" fill="url(#paint74_linear_1003_26737)"/>
<path d="M652.968 678.996C652.552 679.308 652.032 679.621 651.616 679.934C652.032 679.621 652.448 679.308 652.968 678.996Z" fill="url(#paint75_linear_1003_26737)"/>
<path d="M325.435 444.406C327.723 465.258 333.34 485.068 341.453 503.939C333.34 485.172 327.723 465.258 325.435 444.406Z" fill="url(#paint76_linear_1003_26737)"/>
<path d="M686.772 652.301C686.668 652.405 686.564 652.509 686.46 652.509C686.668 652.509 686.772 652.405 686.772 652.301Z" fill="url(#paint77_linear_1003_26737)"/>
<path d="M685.108 653.973C685.004 654.077 685.004 654.077 684.9 654.181C684.9 654.181 685.004 654.077 685.108 653.973Z" fill="url(#paint78_linear_1003_26737)"/>
<path d="M621.973 697.345C621.245 697.658 620.621 698.075 619.893 698.387C620.621 698.075 621.349 697.762 621.973 697.345Z" fill="url(#paint79_linear_1003_26737)"/>
<path d="M662.641 672.214C662.329 672.423 661.913 672.736 661.497 673.048C661.913 672.736 662.329 672.527 662.641 672.214Z" fill="url(#paint80_linear_1003_26737)"/>
<path d="M674.083 663.561C673.875 663.769 673.563 663.978 673.355 664.186C673.563 663.873 673.771 663.665 674.083 663.561Z" fill="url(#paint81_linear_1003_26737)"/>
<path d="M655.984 676.908C655.568 677.221 655.152 677.43 654.736 677.742C655.152 677.534 655.568 677.221 655.984 676.908Z" fill="url(#paint82_linear_1003_26737)"/>
<path d="M659.833 674.302C659.417 674.615 659.105 674.823 658.689 675.136C659.001 674.823 659.417 674.51 659.833 674.302Z" fill="url(#paint83_linear_1003_26737)"/>
<path d="M668.674 667.731C668.362 667.939 668.05 668.252 667.738 668.461C668.05 668.252 668.362 668.044 668.674 667.731Z" fill="url(#paint84_linear_1003_26737)"/>
<path d="M666.074 669.716C665.762 669.924 665.45 670.237 665.138 670.446C665.346 670.237 665.762 670.029 666.074 669.716Z" fill="url(#paint85_linear_1003_26737)"/>
<path d="M355.806 486.424C356.118 486.841 356.43 487.154 356.846 487.571C356.534 487.154 356.222 486.841 355.806 486.424Z" fill="url(#paint86_linear_1003_26737)"/>
<path d="M350.814 480.479C351.126 480.792 351.334 481.209 351.646 481.522C351.334 481.105 351.126 480.792 350.814 480.479Z" fill="url(#paint87_linear_1003_26737)"/>
<path d="M361.423 492.78C361.839 493.197 362.151 493.614 362.567 494.031C362.151 493.614 361.735 493.197 361.423 492.78Z" fill="url(#paint88_linear_1003_26737)"/>
<path d="M414.781 542.411C415.613 543.036 416.341 543.662 417.173 544.287C416.445 543.662 415.613 543.036 414.781 542.411Z" fill="url(#paint89_linear_1003_26737)"/>
<path d="M358.511 489.548C358.823 489.965 359.239 490.382 359.551 490.799C359.239 490.382 358.927 489.965 358.511 489.548Z" fill="url(#paint90_linear_1003_26737)"/>
<path d="M353.31 483.398C353.622 483.711 353.934 484.128 354.246 484.441C353.83 484.128 353.622 483.711 353.31 483.398Z" fill="url(#paint91_linear_1003_26737)"/>
<path d="M344.157 472.035C344.365 472.347 344.573 472.556 344.781 472.869C344.573 472.66 344.365 472.347 344.157 472.035Z" fill="url(#paint92_linear_1003_26737)"/>
<path d="M429.863 553.671C430.799 554.296 431.631 554.922 432.567 555.548C431.631 554.922 430.695 554.296 429.863 553.671Z" fill="url(#paint93_linear_1003_26737)"/>
<path d="M348.421 477.56C348.629 477.872 348.941 478.185 349.149 478.498C348.941 478.185 348.733 477.872 348.421 477.56Z" fill="url(#paint94_linear_1003_26737)"/>
<path d="M410.101 538.763C410.829 539.388 411.661 540.014 412.389 540.639C411.661 539.91 410.933 539.284 410.101 538.763Z" fill="url(#paint95_linear_1003_26737)"/>
<path d="M381.081 513.114C381.601 513.636 382.225 514.157 382.745 514.678C382.121 514.157 381.601 513.636 381.081 513.114Z" fill="url(#paint96_linear_1003_26737)"/>
<path d="M401.156 531.254C401.884 531.88 402.508 532.401 403.236 533.027C402.508 532.506 401.78 531.88 401.156 531.254Z" fill="url(#paint97_linear_1003_26737)"/>
<path d="M384.826 516.658C385.45 517.179 385.97 517.7 386.594 518.326C385.97 517.805 385.346 517.283 384.826 516.658Z" fill="url(#paint98_linear_1003_26737)"/>
<path d="M396.891 527.605C397.515 528.231 398.243 528.752 398.867 529.377C398.139 528.752 397.515 528.231 396.891 527.605Z" fill="url(#paint99_linear_1003_26737)"/>
<path d="M364.335 496.012C364.751 496.429 365.167 496.95 365.583 497.367C365.167 496.846 364.751 496.429 364.335 496.012Z" fill="url(#paint100_linear_1003_26737)"/>
<path d="M599.194 708.604C598.986 708.708 598.882 708.708 598.674 708.813C598.778 708.708 598.986 708.708 599.194 708.604Z" fill="url(#paint101_linear_1003_26737)"/>
<path d="M603.355 706.625C603.043 706.729 602.73 706.937 602.418 707.042C602.73 706.937 603.043 706.833 603.355 706.625Z" fill="url(#paint102_linear_1003_26737)"/>
<path d="M469.803 579.216C470.947 579.842 472.196 580.572 473.34 581.197C472.196 580.572 470.947 579.946 469.803 579.216Z" fill="url(#paint103_linear_1003_26737)"/>
<path d="M329.491 451.286L329.601 451.395C329.601 451.395 329.601 451.286 329.491 451.286Z" fill="url(#paint104_linear_1003_26737)"/>
<path d="M342.181 469.429C342.389 469.637 342.597 469.95 342.805 470.159C342.597 469.95 342.389 469.741 342.181 469.429Z" fill="url(#paint105_linear_1003_26737)"/>
<path d="M330.531 452.747C330.531 452.851 330.635 452.851 330.635 452.956C330.531 452.956 330.531 452.851 330.531 452.747Z" fill="url(#paint106_linear_1003_26737)"/>
<path d="M482.597 586.198C483.845 586.928 485.197 587.554 486.445 588.283C485.197 587.658 483.845 586.928 482.597 586.198Z" fill="url(#paint107_linear_1003_26737)"/>
<path d="M614.9 700.993C614.276 701.305 613.756 701.618 613.132 701.827C613.756 701.618 614.38 701.305 614.9 700.993Z" fill="url(#paint108_linear_1003_26737)"/>
<path d="M476.148 582.761C477.396 583.387 478.644 584.117 479.892 584.742C478.54 584.117 477.396 583.491 476.148 582.761Z" fill="url(#paint109_linear_1003_26737)"/>
<path d="M611.259 702.87C610.739 703.078 610.219 703.391 609.699 703.599C610.219 703.391 610.739 703.182 611.259 702.87Z" fill="url(#paint110_linear_1003_26737)"/>
<path d="M338.54 464.633C338.644 464.841 338.852 465.05 338.956 465.258C338.852 465.05 338.748 464.841 338.54 464.633Z" fill="url(#paint111_linear_1003_26737)"/>
<path d="M440.472 561.073C441.408 561.699 442.448 562.429 443.384 563.054C442.448 562.429 441.512 561.699 440.472 561.073Z" fill="url(#paint112_linear_1003_26737)"/>
<path d="M446.089 564.725C447.129 565.35 448.065 566.08 449.105 566.706C448.065 566.08 447.129 565.454 446.089 564.725Z" fill="url(#paint113_linear_1003_26737)"/>
<path d="M331.572 454.413C331.676 454.517 331.676 454.622 331.78 454.726C331.676 454.622 331.572 454.517 331.572 454.413Z" fill="url(#paint114_linear_1003_26737)"/>
<path d="M457.634 572.02C458.778 572.645 459.818 573.375 460.962 574.001C459.818 573.375 458.778 572.749 457.634 572.02Z" fill="url(#paint115_linear_1003_26737)"/>
<path d="M332.716 456.184C332.82 456.288 332.82 456.393 332.924 456.497C332.924 456.393 332.82 456.288 332.716 456.184Z" fill="url(#paint116_linear_1003_26737)"/>
<path d="M451.809 568.476C452.849 569.102 453.89 569.831 454.93 570.457C453.89 569.727 452.849 569.102 451.809 568.476Z" fill="url(#paint117_linear_1003_26737)"/>
<path d="M334.068 458.169C334.172 458.273 334.276 458.482 334.38 458.586C334.172 458.377 334.068 458.273 334.068 458.169Z" fill="url(#paint118_linear_1003_26737)"/>
<path d="M578.288 624.88C566.95 621.544 556.133 617.999 545.628 614.245C545.42 614.141 545.212 614.141 545.108 614.037C542.924 613.203 540.739 612.369 538.555 611.639C538.139 611.43 537.619 611.326 537.203 611.118C535.227 610.388 533.251 609.554 531.274 608.824C530.65 608.615 530.026 608.303 529.402 608.094C527.634 607.364 525.762 606.634 523.993 605.905C523.265 605.592 522.537 605.279 521.809 604.966C520.145 604.236 518.481 603.507 516.817 602.777C515.985 602.464 515.256 602.047 514.424 601.734C512.864 601.004 511.304 600.274 509.744 599.649C508.912 599.232 508.08 598.919 507.248 598.502C505.791 597.772 504.231 597.147 502.775 596.417C501.943 596 501.007 595.583 500.175 595.166C498.719 594.436 497.366 593.81 495.91 593.08C494.974 592.663 494.142 592.246 493.206 591.725C491.854 590.995 490.502 590.37 489.15 589.64C488.213 589.223 487.277 588.701 486.445 588.284C485.093 587.659 483.845 586.929 482.597 586.199C481.661 585.678 480.725 585.261 479.892 584.739C478.644 584.114 477.396 583.384 476.148 582.758C475.212 582.237 474.276 581.716 473.444 581.299C472.196 580.673 471.051 579.943 469.907 579.318C468.971 578.796 468.139 578.275 467.203 577.754C466.059 577.128 464.915 576.398 463.771 575.773C462.834 575.252 462.002 574.73 461.066 574.209C459.922 573.583 458.882 572.854 457.738 572.228C456.802 571.707 455.97 571.185 455.034 570.56C453.993 569.934 452.953 569.204 451.913 568.579C450.977 568.057 450.145 567.432 449.209 566.911C448.169 566.285 447.129 565.555 446.193 564.93C445.36 564.304 444.424 563.783 443.592 563.157C442.656 562.532 441.616 561.802 440.68 561.176C439.848 560.551 438.912 560.029 438.08 559.404C437.144 558.778 436.207 558.153 435.271 557.423C434.439 556.797 433.503 556.172 432.671 555.65C431.735 555.025 430.903 554.399 429.967 553.774C429.135 553.148 428.303 552.522 427.47 551.897C426.638 551.271 425.702 550.646 424.87 550.02C424.038 549.395 423.206 548.769 422.374 548.143C421.542 547.518 420.71 546.892 419.878 546.267C419.045 545.641 418.213 545.016 417.485 544.39C416.653 543.764 415.925 543.139 415.093 542.513C414.261 541.888 413.533 541.262 412.701 540.637C411.973 540.011 411.141 539.385 410.413 538.76C409.58 538.134 408.852 537.509 408.02 536.883C407.292 536.258 406.564 535.632 405.836 535.111C405.108 534.485 404.276 533.86 403.548 533.234C402.82 532.608 402.092 532.087 401.467 531.462C400.739 530.836 399.907 530.21 399.179 529.481C398.451 528.855 397.827 528.334 397.203 527.708C396.475 527.083 395.747 526.457 395.019 525.727C394.395 525.102 393.771 524.58 393.043 524.059C392.314 523.433 391.586 522.704 390.858 522.078C390.234 521.557 389.61 520.931 388.986 520.41C388.258 519.784 387.53 519.054 386.802 518.429C386.178 517.907 385.658 517.386 385.034 516.761C384.306 516.135 383.681 515.405 382.953 514.78C382.433 514.258 381.809 513.737 381.289 513.216C380.561 512.59 379.937 511.86 379.209 511.235C378.689 510.713 378.169 510.192 377.649 509.671C377.025 509.045 376.297 508.315 375.673 507.69C375.152 507.168 374.632 506.647 374.216 506.23C373.592 505.605 372.864 504.875 372.24 504.249C371.72 503.728 371.304 503.311 370.888 502.789C370.264 502.164 369.64 501.434 369.016 500.809C368.6 500.287 368.184 499.87 367.664 499.453C367.04 498.828 366.415 498.098 365.791 497.472C365.375 497.055 364.959 496.534 364.543 496.117C363.919 495.491 363.295 494.761 362.775 494.136C362.359 493.719 362.047 493.302 361.631 492.885C361.007 492.259 360.487 491.529 359.863 490.904C359.447 490.487 359.135 490.07 358.823 489.652C358.199 489.027 357.678 488.297 357.158 487.671C356.846 487.254 356.534 486.942 356.118 486.525C355.598 485.899 354.974 485.273 354.454 484.544C354.142 484.127 353.83 483.814 353.518 483.501C352.998 482.875 352.478 482.25 351.854 481.52C351.542 481.207 351.334 480.79 351.022 480.477C350.502 479.852 349.982 479.226 349.462 478.601C349.149 478.288 348.941 477.975 348.733 477.662C348.213 477.037 347.693 476.411 347.277 475.786C347.069 475.473 346.757 475.16 346.549 474.847C346.029 474.222 345.613 473.596 345.093 472.971C344.885 472.658 344.677 472.449 344.469 472.136C343.949 471.511 343.533 470.885 343.117 470.26C342.909 469.947 342.701 469.738 342.493 469.53C342.077 468.904 341.557 468.279 341.141 467.757C340.933 467.549 340.829 467.34 340.621 467.028C340.204 466.402 339.788 465.881 339.372 465.255C339.268 465.047 339.06 464.838 338.956 464.63C338.54 464.004 338.124 463.483 337.708 462.857C337.604 462.649 337.396 462.44 337.292 462.336C336.876 461.815 336.46 461.189 336.148 460.668C336.044 460.459 335.94 460.355 335.836 460.146C335.42 459.625 335.108 459.104 334.692 458.582C334.588 458.478 334.484 458.27 334.38 458.165C334.068 457.644 333.652 457.123 333.34 456.601C333.236 456.497 333.132 456.393 333.132 456.289C332.82 455.767 332.404 455.246 332.092 454.829C331.988 454.725 331.988 454.62 331.884 454.516C331.571 453.995 331.259 453.578 330.947 453.057C330.947 452.952 330.843 452.952 330.843 452.848C330.531 452.327 330.219 451.91 330.011 451.493L329.907 451.388C329.595 450.971 329.387 450.554 329.075 450.137C329.075 450.137 329.075 450.137 329.075 450.033C326.995 446.697 325.955 444.82 325.851 444.611C328.139 465.464 333.756 485.378 341.869 504.145C398.867 636.14 578.704 717.673 578.704 717.673C585.881 714.754 592.641 711.939 599.09 709.02C599.298 708.915 599.402 708.915 599.61 708.811C600.754 708.29 601.794 707.768 602.939 707.351C603.251 707.247 603.563 707.039 603.875 706.934C604.811 706.517 605.643 706.1 606.579 705.683C606.995 705.475 607.411 705.266 607.931 705.058C608.659 704.641 609.491 704.328 610.219 703.911C610.739 703.702 611.259 703.389 611.78 703.181C612.404 702.868 613.132 702.555 613.756 702.243C614.38 701.93 614.9 701.617 615.524 701.408C616.044 701.096 616.668 700.887 617.188 700.574C617.812 700.262 618.436 699.949 619.06 699.636C619.58 699.428 619.996 699.115 620.517 698.906C621.245 698.593 621.869 698.176 622.597 697.864C623.013 697.655 623.429 697.447 623.741 697.238C624.469 696.821 625.197 696.404 625.925 696.091C626.237 695.883 626.549 695.778 626.861 695.57C627.693 695.153 628.421 694.736 629.149 694.319C629.358 694.214 629.67 694.006 629.878 693.902C630.71 693.485 631.542 692.963 632.374 692.546C632.582 692.442 632.686 692.338 632.894 692.233C633.83 691.712 634.662 691.191 635.494 690.669C635.598 690.669 635.702 690.565 635.806 690.565C636.43 690.148 637.054 689.835 637.678 689.418C638.407 689.001 639.031 688.584 639.759 688.167C640.279 687.854 640.799 687.542 641.319 687.229C642.359 686.603 643.399 685.978 644.335 685.352C644.855 685.039 645.375 684.727 645.895 684.414C646.52 683.997 647.144 683.58 647.768 683.163C648.288 682.85 648.704 682.537 649.224 682.224C650.16 681.599 651.096 680.973 652.032 680.348C652.448 680.035 652.968 679.722 653.384 679.409C654.008 678.992 654.632 678.575 655.257 678.158C655.673 677.845 656.089 677.637 656.505 677.324C657.441 676.698 658.273 676.073 659.105 675.552C659.521 675.239 659.937 675.03 660.249 674.717C660.873 674.3 661.393 673.883 662.017 673.466C662.433 673.153 662.745 672.945 663.161 672.632C663.993 672.007 664.826 671.485 665.554 670.86C665.866 670.651 666.178 670.338 666.49 670.13C667.01 669.713 667.634 669.296 668.154 668.879C668.466 668.67 668.778 668.357 669.09 668.149C669.818 667.523 670.546 667.002 671.274 666.376C671.586 666.168 671.794 665.959 672.106 665.751C672.626 665.334 673.147 664.917 673.771 664.5C673.979 664.291 674.291 664.083 674.499 663.874C675.227 663.353 675.851 662.727 676.579 662.206C676.787 661.997 676.995 661.893 677.203 661.685C677.723 661.268 678.243 660.851 678.763 660.329C678.971 660.121 679.179 660.016 679.387 659.808C680.011 659.287 680.635 658.661 681.259 658.14C681.363 658.035 681.571 657.931 681.676 657.827C682.196 657.41 682.716 656.889 683.236 656.472C683.34 656.367 683.548 656.159 683.652 656.055C684.276 655.533 684.796 655.012 685.42 654.491C685.524 654.386 685.524 654.386 685.628 654.282C686.148 653.761 686.668 653.344 687.084 652.927C687.188 652.822 687.292 652.718 687.396 652.718C687.916 652.197 688.436 651.676 688.956 651.258C689.476 650.737 689.996 650.32 690.413 649.799L690.517 649.695C696.965 643.335 699.67 639.373 699.67 639.373C699.67 639.373 645.375 649.486 578.288 624.88Z" fill="url(#paint119_linear_1003_26737)"/>
<path d="M578.288 624.88C566.95 621.544 556.133 617.999 545.628 614.245C545.42 614.141 545.212 614.141 545.108 614.037C542.924 613.203 540.739 612.369 538.555 611.639C538.139 611.43 537.619 611.326 537.203 611.118C535.227 610.388 533.251 609.554 531.274 608.824C530.65 608.615 530.026 608.303 529.402 608.094C527.634 607.364 525.762 606.634 523.993 605.905C523.265 605.592 522.537 605.279 521.809 604.966C520.145 604.236 518.481 603.507 516.817 602.777C515.985 602.464 515.256 602.047 514.424 601.734C512.864 601.004 511.304 600.274 509.744 599.649C508.912 599.232 508.08 598.919 507.248 598.502C505.791 597.772 504.231 597.147 502.775 596.417C501.943 596 501.007 595.583 500.175 595.166C498.719 594.436 497.366 593.81 495.91 593.08C494.974 592.663 494.142 592.246 493.206 591.725C491.854 590.995 490.502 590.37 489.15 589.64C488.213 589.223 487.277 588.701 486.445 588.284C485.093 587.659 483.845 586.929 482.597 586.199C481.661 585.678 480.725 585.261 479.892 584.739C478.644 584.114 477.396 583.384 476.148 582.758C475.212 582.237 474.276 581.716 473.444 581.299C472.196 580.673 471.051 579.943 469.907 579.318C468.971 578.796 468.139 578.275 467.203 577.754C466.059 577.128 464.915 576.398 463.771 575.773C462.834 575.252 462.002 574.73 461.066 574.209C459.922 573.583 458.882 572.854 457.738 572.228C456.802 571.707 455.97 571.185 455.034 570.56C453.993 569.934 452.953 569.204 451.913 568.579C450.977 568.057 450.145 567.432 449.209 566.911C448.169 566.285 447.129 565.555 446.193 564.93C445.36 564.304 444.424 563.783 443.592 563.157C442.656 562.532 441.616 561.802 440.68 561.176C439.848 560.551 438.912 560.029 438.08 559.404C437.144 558.778 436.207 558.153 435.271 557.423C434.439 556.797 433.503 556.172 432.671 555.65C431.735 555.025 430.903 554.399 429.967 553.774C429.135 553.148 428.303 552.522 427.47 551.897C426.638 551.271 425.702 550.646 424.87 550.02C424.038 549.395 423.206 548.769 422.374 548.143C421.542 547.518 420.71 546.892 419.878 546.267C419.045 545.641 418.213 545.016 417.485 544.39C416.653 543.764 415.925 543.139 415.093 542.513C414.261 541.888 413.533 541.262 412.701 540.637C411.973 540.011 411.141 539.385 410.413 538.76C409.58 538.134 408.852 537.509 408.02 536.883C407.292 536.258 406.564 535.632 405.836 535.111C405.108 534.485 404.276 533.86 403.548 533.234C402.82 532.608 402.092 532.087 401.467 531.462C400.739 530.836 399.907 530.21 399.179 529.481C398.451 528.855 397.827 528.334 397.203 527.708C396.475 527.083 395.747 526.457 395.019 525.727C394.395 525.102 393.771 524.58 393.043 524.059C392.314 523.433 391.586 522.704 390.858 522.078C390.234 521.557 389.61 520.931 388.986 520.41C388.258 519.784 387.53 519.054 386.802 518.429C386.178 517.907 385.658 517.386 385.034 516.761C384.306 516.135 383.681 515.405 382.953 514.78C382.433 514.258 381.809 513.737 381.289 513.216C380.561 512.59 379.937 511.86 379.209 511.235C378.689 510.713 378.169 510.192 377.649 509.671C377.025 509.045 376.297 508.315 375.673 507.69C375.152 507.168 374.632 506.647 374.216 506.23C373.592 505.605 372.864 504.875 372.24 504.249C371.72 503.728 371.304 503.311 370.888 502.789C370.264 502.164 369.64 501.434 369.016 500.809C368.6 500.287 368.184 499.87 367.664 499.453C367.04 498.828 366.415 498.098 365.791 497.472C365.375 497.055 364.959 496.534 364.543 496.117C363.919 495.491 363.295 494.761 362.775 494.136C362.359 493.719 362.047 493.302 361.631 492.885C361.007 492.259 360.487 491.529 359.863 490.904C359.447 490.487 359.135 490.07 358.823 489.652C358.199 489.027 357.678 488.297 357.158 487.671C356.846 487.254 356.534 486.942 356.118 486.525C355.598 485.899 354.974 485.273 354.454 484.544C354.142 484.127 353.83 483.814 353.518 483.501C352.998 482.875 352.478 482.25 351.854 481.52C351.542 481.207 351.334 480.79 351.022 480.477C350.502 479.852 349.982 479.226 349.462 478.601C349.149 478.288 348.941 477.975 348.733 477.662C348.213 477.037 347.693 476.411 347.277 475.786C347.069 475.473 346.757 475.16 346.549 474.847C346.029 474.222 345.613 473.596 345.093 472.971C344.885 472.658 344.677 472.449 344.469 472.136C343.949 471.511 343.533 470.885 343.117 470.26C342.909 469.947 342.701 469.738 342.493 469.53C342.077 468.904 341.557 468.279 341.141 467.757C340.933 467.549 340.829 467.34 340.621 467.028C340.204 466.402 339.788 465.881 339.372 465.255C339.268 465.047 339.06 464.838 338.956 464.63C338.54 464.004 338.124 463.483 337.708 462.857C337.604 462.649 337.396 462.44 337.292 462.336C336.876 461.815 336.46 461.189 336.148 460.668C336.044 460.459 335.94 460.355 335.836 460.146C335.42 459.625 335.108 459.104 334.692 458.582C334.588 458.478 334.484 458.27 334.38 458.165C334.068 457.644 333.652 457.123 333.34 456.601C333.236 456.497 333.132 456.393 333.132 456.289C332.82 455.767 332.404 455.246 332.092 454.829C331.988 454.725 331.988 454.62 331.884 454.516C331.571 453.995 331.259 453.578 330.947 453.057C330.947 452.952 330.843 452.952 330.843 452.848C330.531 452.327 330.219 451.91 330.011 451.493L329.907 451.388C329.595 450.971 329.387 450.554 329.075 450.137C329.075 450.137 329.075 450.137 329.075 450.033C326.995 446.697 325.955 444.82 325.851 444.611C328.139 465.464 333.756 485.378 341.869 504.145C398.867 636.14 578.704 717.673 578.704 717.673C585.881 714.754 592.641 711.939 599.09 709.02C599.298 708.915 599.402 708.915 599.61 708.811C600.754 708.29 601.794 707.768 602.939 707.351C603.251 707.247 603.563 707.039 603.875 706.934C604.811 706.517 605.643 706.1 606.579 705.683C606.995 705.475 607.411 705.266 607.931 705.058C608.659 704.641 609.491 704.328 610.219 703.911C610.739 703.702 611.259 703.389 611.78 703.181C612.404 702.868 613.132 702.555 613.756 702.243C614.38 701.93 614.9 701.617 615.524 701.408C616.044 701.096 616.668 700.887 617.188 700.574C617.812 700.262 618.436 699.949 619.06 699.636C619.58 699.428 619.996 699.115 620.517 698.906C621.245 698.593 621.869 698.176 622.597 697.864C623.013 697.655 623.429 697.447 623.741 697.238C624.469 696.821 625.197 696.404 625.925 696.091C626.237 695.883 626.549 695.778 626.861 695.57C627.693 695.153 628.421 694.736 629.149 694.319C629.358 694.214 629.67 694.006 629.878 693.902C630.71 693.485 631.542 692.963 632.374 692.546C632.582 692.442 632.686 692.338 632.894 692.233C633.83 691.712 634.662 691.191 635.494 690.669C635.598 690.669 635.702 690.565 635.806 690.565C636.43 690.148 637.054 689.835 637.678 689.418C638.407 689.001 639.031 688.584 639.759 688.167C640.279 687.854 640.799 687.542 641.319 687.229C642.359 686.603 643.399 685.978 644.335 685.352C644.855 685.039 645.375 684.727 645.895 684.414C646.52 683.997 647.144 683.58 647.768 683.163C648.288 682.85 648.704 682.537 649.224 682.224C650.16 681.599 651.096 680.973 652.032 680.348C652.448 680.035 652.968 679.722 653.384 679.409C654.008 678.992 654.632 678.575 655.257 678.158C655.673 677.845 656.089 677.637 656.505 677.324C657.441 676.698 658.273 676.073 659.105 675.552C659.521 675.239 659.937 675.03 660.249 674.717C660.873 674.3 661.393 673.883 662.017 673.466C662.433 673.153 662.745 672.945 663.161 672.632C663.993 672.007 664.826 671.485 665.554 670.86C665.866 670.651 666.178 670.338 666.49 670.13C667.01 669.713 667.634 669.296 668.154 668.879C668.466 668.67 668.778 668.357 669.09 668.149C669.818 667.523 670.546 667.002 671.274 666.376C671.586 666.168 671.794 665.959 672.106 665.751C672.626 665.334 673.147 664.917 673.771 664.5C673.979 664.291 674.291 664.083 674.499 663.874C675.227 663.353 675.851 662.727 676.579 662.206C676.787 661.997 676.995 661.893 677.203 661.685C677.723 661.268 678.243 660.851 678.763 660.329C678.971 660.121 679.179 660.016 679.387 659.808C680.011 659.287 680.635 658.661 681.259 658.14C681.363 658.035 681.571 657.931 681.676 657.827C682.196 657.41 682.716 656.889 683.236 656.472C683.34 656.367 683.548 656.159 683.652 656.055C684.276 655.533 684.796 655.012 685.42 654.491C685.524 654.386 685.524 654.386 685.628 654.282C686.148 653.761 686.668 653.344 687.084 652.927C687.188 652.822 687.292 652.718 687.396 652.718C687.916 652.197 688.436 651.676 688.956 651.258C689.476 650.737 689.996 650.32 690.413 649.799L690.517 649.695C696.965 643.335 699.67 639.373 699.67 639.373C699.67 639.373 645.375 649.486 578.288 624.88Z" fill="url(#paint120_linear_1003_26737)"/>
<path d="M812.626 516.134C800.249 540.219 780.695 565.242 750.947 590.056C747.619 591.933 744.915 594.748 741.69 596.833C752.299 577.128 764.261 538.238 750.115 474.221C750.115 474.221 726.296 356.926 584.944 341.6C587.753 340.766 779.759 281.337 813.666 478.287C815.747 490.903 815.435 503.727 812.626 516.134Z" fill="url(#paint121_linear_1003_26737)"/>
<path d="M741.586 596.729C728.377 604.966 713.191 609.449 697.589 609.762C695.509 609.762 693.533 609.762 691.557 609.658C684.068 609.345 675.539 608.719 666.074 607.781C655.985 606.843 644.959 605.383 633.102 603.506C617.5 601.004 600.65 597.563 582.864 592.976C506.624 573.062 414.573 530.523 345.717 440.44C337.812 430.119 333.548 417.92 333.028 405.617C350.086 384.556 358.303 381.428 358.303 381.428C358.303 381.428 442.344 482.667 571.215 502.893C580.784 504.353 590.665 505.396 600.858 506.021C615.836 506.855 631.334 506.438 647.248 504.666C655.985 503.727 664.93 502.268 673.979 500.391C698.422 495.387 723.904 486.837 750.115 474.117C764.157 538.238 752.196 577.024 741.586 596.729Z" fill="url(#paint122_linear_1003_26737)"/>
<path d="M636.118 689.526C620.413 698.701 601.274 708.397 578.288 717.572C578.288 717.572 343.429 611.121 325.435 444.406C326.059 447.012 366.624 607.576 636.118 689.526Z" fill="url(#paint123_linear_1003_26737)"/>
<path d="M242.433 852.59C238.065 850.713 234.736 848.107 232.136 844.562C229.64 841.121 228.288 836.951 228.288 832.259H244.93C245.138 835.491 246.282 838.097 248.258 840.078C250.338 841.955 253.042 842.998 256.579 842.998C260.219 842.998 263.028 842.059 265.108 840.287C267.188 838.514 268.228 836.116 268.228 833.197C268.228 830.903 267.5 829.027 266.148 827.567C264.692 826.107 263.028 824.96 260.843 824.022C258.763 823.188 255.851 822.25 252.106 821.207C247.114 819.747 242.953 818.288 239.833 816.828C236.713 815.368 234.008 813.179 231.72 810.259C229.432 807.34 228.392 803.378 228.392 798.582C228.392 793.995 229.536 790.033 231.824 786.592C234.112 783.151 237.337 780.545 241.497 778.772C245.658 777 250.338 776.062 255.643 776.062C263.652 776.062 270.1 778.043 275.093 781.9C280.086 785.758 282.79 791.18 283.31 798.165H266.356C266.252 795.246 265.108 792.952 263.028 791.18C260.947 789.407 258.139 788.573 254.707 788.573C251.69 788.573 249.298 789.407 247.426 790.971C245.658 792.535 244.721 794.933 244.721 798.061C244.721 800.146 245.45 801.814 246.802 803.274C248.154 804.629 249.818 805.776 251.898 806.61C253.979 807.444 256.787 808.487 260.531 809.53C265.524 810.989 269.684 812.449 272.805 814.013C276.029 815.473 278.733 817.766 281.022 820.686C283.31 823.605 284.454 827.567 284.454 832.363C284.454 836.533 283.414 840.391 281.23 843.936C279.045 847.481 275.925 850.296 271.765 852.381C267.604 854.467 262.716 855.509 256.995 855.509C251.586 855.405 246.698 854.467 242.433 852.59Z" fill="#0A0A0A"/>
<path d="M401.155 777.104L379.521 854.675H361.215L346.653 799.52L331.467 854.675L313.369 854.779L292.567 777.104H309.209L322.834 837.263L338.54 777.104H355.806L370.68 836.95L384.409 777.104H401.155Z" fill="#0A0A0A"/>
<path d="M426.742 777.104V854.675H411.245V777.104H426.742Z" fill="#0A0A0A"/>
<path d="M495.494 812.762C493.518 816.411 490.502 819.33 486.341 821.52C482.181 823.709 476.876 824.856 470.531 824.856H457.53V854.571H442.032V777H470.531C476.564 777 481.661 778.043 485.821 780.128C489.981 782.213 493.206 785.028 495.286 788.677C497.366 792.327 498.406 796.393 498.406 800.98C498.406 805.255 497.47 809.113 495.494 812.762ZM479.268 809.53C481.348 807.444 482.389 804.629 482.389 801.085C482.389 797.435 481.348 794.516 479.268 792.431C477.188 790.346 474.068 789.407 469.699 789.407H457.426V812.658H469.699C474.068 812.658 477.188 811.615 479.268 809.53Z" fill="#0A0A0A"/>
<path d="M524.929 789.2V809.323H550.932V821.313H524.929V842.27H554.261V854.573H509.432V776.897H554.261V789.096H524.929V789.2Z" fill="#0A0A0A"/>
<path d="M614.796 844.981H640.799V854.677H602.106V777.523H614.692V844.981H614.796Z" fill="#0A0A0A"/>
<path d="M666.802 850.402C660.769 847.066 655.984 842.374 652.552 836.327C649.016 830.279 647.247 823.502 647.247 815.995C647.247 808.489 649.016 801.712 652.552 795.664C656.088 789.617 660.873 785.03 666.802 781.589C672.834 778.253 679.387 776.584 686.564 776.584C693.845 776.584 700.397 778.253 706.43 781.589C712.463 784.925 717.143 789.617 720.68 795.664C724.112 801.712 725.88 808.489 725.88 815.995C725.88 823.502 724.112 830.384 720.68 836.327C717.247 842.374 712.463 847.066 706.43 850.402C700.397 853.738 693.741 855.406 686.564 855.406C679.387 855.406 672.73 853.738 666.802 850.402ZM700.189 840.497C704.142 838.203 707.262 834.867 709.55 830.592C711.839 826.317 712.879 821.417 712.879 815.891C712.879 810.365 711.735 805.465 709.55 801.19C707.262 797.02 704.142 793.683 700.189 791.39C696.237 789.096 691.66 787.949 686.564 787.949C681.467 787.949 676.891 789.096 672.938 791.39C668.986 793.683 665.865 796.916 663.577 801.19C661.289 805.361 660.249 810.261 660.249 815.891C660.249 821.417 661.393 826.317 663.577 830.592C665.865 834.867 668.986 838.099 672.938 840.497C676.891 842.791 681.467 844.042 686.564 844.042C691.66 844.042 696.133 842.791 700.189 840.497Z" fill="#0A0A0A"/>
<path d="M745.539 777.417L768.213 841.538L791.096 777.417H804.513L775.598 854.571H760.932L731.913 777.417H745.539Z" fill="#0A0A0A"/>
<path d="M827.812 787.218V810.677H854.439V820.477H827.812V844.77H857.767V854.675H815.227V777.417H857.767V787.322H827.812V787.218Z" fill="#0A0A0A"/>
<path d="M913.206 854.677L895.524 823.816H885.851V854.677H873.265V777.523H899.892C905.821 777.523 910.813 778.566 914.87 780.651C918.926 782.737 922.047 785.552 924.023 788.992C926.103 792.433 927.039 796.395 927.039 800.67C927.039 805.674 925.583 810.262 922.671 814.432C919.758 818.498 915.286 821.313 909.253 822.773L928.287 854.782H913.206V854.677ZM885.851 813.807H899.788C904.469 813.807 908.109 812.66 910.501 810.262C912.894 807.864 914.142 804.632 914.142 800.565C914.142 796.395 912.998 793.163 910.605 790.869C908.213 788.575 904.677 787.324 899.892 787.324H885.955V813.807H885.851Z" fill="#0A0A0A"/>
</g>
<defs>
<linearGradient id="paint0_linear_1003_26737" x1="325.426" y1="447.84" x2="831.136" y2="447.84" gradientUnits="userSpaceOnUse">
<stop stop-color="#2866D9"/>
<stop offset="1" stop-color="#D3142A"/>
</linearGradient>
<linearGradient id="paint1_linear_1003_26737" x1="314.703" y1="264.605" x2="578.837" y2="474.136" gradientUnits="userSpaceOnUse">
<stop stop-color="#2866D9"/>
<stop offset="1" stop-color="#D3142A"/>
</linearGradient>
<linearGradient id="paint2_linear_1003_26737" x1="325.433" y1="466.105" x2="699.192" y2="466.105" gradientUnits="userSpaceOnUse">
<stop stop-color="#2866D9"/>
<stop offset="1" stop-color="#D3142A"/>
</linearGradient>
<linearGradient id="paint3_linear_1003_26737" x1="325.433" y1="463.74" x2="699.193" y2="463.74" gradientUnits="userSpaceOnUse">
<stop stop-color="#2866D9"/>
<stop offset="1" stop-color="#D3142A"/>
</linearGradient>
<linearGradient id="paint4_linear_1003_26737" x1="325.433" y1="461.493" x2="699.193" y2="461.493" gradientUnits="userSpaceOnUse">
<stop stop-color="#2866D9"/>
<stop offset="1" stop-color="#D3142A"/>
</linearGradient>
<linearGradient id="paint5_linear_1003_26737" x1="325.432" y1="706.013" x2="699.194" y2="706.013" gradientUnits="userSpaceOnUse">
<stop stop-color="#2866D9"/>
<stop offset="1" stop-color="#D3142A"/>
</linearGradient>
<linearGradient id="paint6_linear_1003_26737" x1="325.433" y1="468.576" x2="699.194" y2="468.576" gradientUnits="userSpaceOnUse">
<stop stop-color="#2866D9"/>
<stop offset="1" stop-color="#D3142A"/>
</linearGradient>
<linearGradient id="paint7_linear_1003_26737" x1="325.433" y1="459.353" x2="699.193" y2="459.353" gradientUnits="userSpaceOnUse">
<stop stop-color="#2866D9"/>
<stop offset="1" stop-color="#D3142A"/>
</linearGradient>
<linearGradient id="paint8_linear_1003_26737" x1="325.432" y1="707.855" x2="699.194" y2="707.855" gradientUnits="userSpaceOnUse">
<stop stop-color="#2866D9"/>
<stop offset="1" stop-color="#D3142A"/>
</linearGradient>
<linearGradient id="paint9_linear_1003_26737" x1="325.433" y1="452.098" x2="699.191" y2="452.098" gradientUnits="userSpaceOnUse">
<stop stop-color="#2866D9"/>
<stop offset="1" stop-color="#D3142A"/>
</linearGradient>
<linearGradient id="paint10_linear_1003_26737" x1="325.433" y1="450.619" x2="699.195" y2="450.619" gradientUnits="userSpaceOnUse">
<stop stop-color="#2866D9"/>
<stop offset="1" stop-color="#D3142A"/>
</linearGradient>
<linearGradient id="paint11_linear_1003_26737" x1="325.433" y1="457.345" x2="699.193" y2="457.345" gradientUnits="userSpaceOnUse">
<stop stop-color="#2866D9"/>
<stop offset="1" stop-color="#D3142A"/>
</linearGradient>
<linearGradient id="paint12_linear_1003_26737" x1="325.433" y1="453.709" x2="699.194" y2="453.709" gradientUnits="userSpaceOnUse">
<stop stop-color="#2866D9"/>
<stop offset="1" stop-color="#D3142A"/>
</linearGradient>
<linearGradient id="paint13_linear_1003_26737" x1="325.433" y1="471.16" x2="699.194" y2="471.16" gradientUnits="userSpaceOnUse">
<stop stop-color="#2866D9"/>
<stop offset="1" stop-color="#D3142A"/>
</linearGradient>
<linearGradient id="paint14_linear_1003_26737" x1="325.433" y1="512.145" x2="699.193" y2="512.145" gradientUnits="userSpaceOnUse">
<stop stop-color="#2866D9"/>
<stop offset="1" stop-color="#D3142A"/>
</linearGradient>
<linearGradient id="paint15_linear_1003_26737" x1="325.433" y1="498.323" x2="699.194" y2="498.323" gradientUnits="userSpaceOnUse">
<stop stop-color="#2866D9"/>
<stop offset="1" stop-color="#D3142A"/>
</linearGradient>
<linearGradient id="paint16_linear_1003_26737" x1="325.433" y1="522.962" x2="699.194" y2="522.962" gradientUnits="userSpaceOnUse">
<stop stop-color="#2866D9"/>
<stop offset="1" stop-color="#D3142A"/>
</linearGradient>
<linearGradient id="paint17_linear_1003_26737" x1="325.433" y1="515.72" x2="699.193" y2="515.72" gradientUnits="userSpaceOnUse">
<stop stop-color="#2866D9"/>
<stop offset="1" stop-color="#D3142A"/>
</linearGradient>
<linearGradient id="paint18_linear_1003_26737" x1="325.433" y1="519.321" x2="699.194" y2="519.321" gradientUnits="userSpaceOnUse">
<stop stop-color="#2866D9"/>
<stop offset="1" stop-color="#D3142A"/>
</linearGradient>
<linearGradient id="paint19_linear_1003_26737" x1="325.433" y1="482.427" x2="699.193" y2="482.427" gradientUnits="userSpaceOnUse">
<stop stop-color="#2866D9"/>
<stop offset="1" stop-color="#D3142A"/>
</linearGradient>
<linearGradient id="paint20_linear_1003_26737" x1="325.433" y1="485.455" x2="699.193" y2="485.455" gradientUnits="userSpaceOnUse">
<stop stop-color="#2866D9"/>
<stop offset="1" stop-color="#D3142A"/>
</linearGradient>
<linearGradient id="paint21_linear_1003_26737" x1="325.433" y1="488.57" x2="699.193" y2="488.57" gradientUnits="userSpaceOnUse">
<stop stop-color="#2866D9"/>
<stop offset="1" stop-color="#D3142A"/>
</linearGradient>
<linearGradient id="paint22_linear_1003_26737" x1="325.433" y1="495.004" x2="699.193" y2="495.004" gradientUnits="userSpaceOnUse">
<stop stop-color="#2866D9"/>
<stop offset="1" stop-color="#D3142A"/>
</linearGradient>
<linearGradient id="paint23_linear_1003_26737" x1="325.433" y1="491.752" x2="699.193" y2="491.752" gradientUnits="userSpaceOnUse">
<stop stop-color="#2866D9"/>
<stop offset="1" stop-color="#D3142A"/>
</linearGradient>
<linearGradient id="paint24_linear_1003_26737" x1="325.433" y1="688.268" x2="699.193" y2="688.268" gradientUnits="userSpaceOnUse">
<stop stop-color="#2866D9"/>
<stop offset="1" stop-color="#D3142A"/>
</linearGradient>
<linearGradient id="paint25_linear_1003_26737" x1="325.438" y1="664.769" x2="699.193" y2="664.769" gradientUnits="userSpaceOnUse">
<stop stop-color="#2866D9"/>
<stop offset="1" stop-color="#D3142A"/>
</linearGradient>
<linearGradient id="paint26_linear_1003_26737" x1="325.433" y1="662.671" x2="699.193" y2="662.671" gradientUnits="userSpaceOnUse">
<stop stop-color="#2866D9"/>
<stop offset="1" stop-color="#D3142A"/>
</linearGradient>
<linearGradient id="paint27_linear_1003_26737" x1="325.431" y1="673.664" x2="699.194" y2="673.664" gradientUnits="userSpaceOnUse">
<stop stop-color="#2866D9"/>
<stop offset="1" stop-color="#D3142A"/>
</linearGradient>
<linearGradient id="paint28_linear_1003_26737" x1="325.435" y1="671.366" x2="699.193" y2="671.366" gradientUnits="userSpaceOnUse">
<stop stop-color="#2866D9"/>
<stop offset="1" stop-color="#D3142A"/>
</linearGradient>
<linearGradient id="paint29_linear_1003_26737" x1="325.437" y1="654.98" x2="699.193" y2="654.98" gradientUnits="userSpaceOnUse">
<stop stop-color="#2866D9"/>
<stop offset="1" stop-color="#D3142A"/>
</linearGradient>
<linearGradient id="paint30_linear_1003_26737" x1="325.433" y1="651.591" x2="699.193" y2="651.591" gradientUnits="userSpaceOnUse">
<stop stop-color="#2866D9"/>
<stop offset="1" stop-color="#D3142A"/>
</linearGradient>
<linearGradient id="paint31_linear_1003_26737" x1="325.435" y1="653.297" x2="699.193" y2="653.297" gradientUnits="userSpaceOnUse">
<stop stop-color="#2866D9"/>
<stop offset="1" stop-color="#D3142A"/>
</linearGradient>
<linearGradient id="paint32_linear_1003_26737" x1="325.435" y1="650.092" x2="699.193" y2="650.092" gradientUnits="userSpaceOnUse">
<stop stop-color="#2866D9"/>
<stop offset="1" stop-color="#D3142A"/>
</linearGradient>
<linearGradient id="paint33_linear_1003_26737" x1="325.433" y1="676.02" x2="699.193" y2="676.02" gradientUnits="userSpaceOnUse">
<stop stop-color="#2866D9"/>
<stop offset="1" stop-color="#D3142A"/>
</linearGradient>
<linearGradient id="paint34_linear_1003_26737" x1="325.435" y1="658.687" x2="699.193" y2="658.687" gradientUnits="userSpaceOnUse">
<stop stop-color="#2866D9"/>
<stop offset="1" stop-color="#D3142A"/>
</linearGradient>
<linearGradient id="paint35_linear_1003_26737" x1="325.434" y1="702.394" x2="699.193" y2="702.394" gradientUnits="userSpaceOnUse">
<stop stop-color="#2866D9"/>
<stop offset="1" stop-color="#D3142A"/>
</linearGradient>
<linearGradient id="paint36_linear_1003_26737" x1="325.431" y1="697.06" x2="699.194" y2="697.06" gradientUnits="userSpaceOnUse">
<stop stop-color="#2866D9"/>
<stop offset="1" stop-color="#D3142A"/>
</linearGradient>
<linearGradient id="paint37_linear_1003_26737" x1="325.428" y1="693.547" x2="699.195" y2="693.547" gradientUnits="userSpaceOnUse">
<stop stop-color="#2866D9"/>
<stop offset="1" stop-color="#D3142A"/>
</linearGradient>
<linearGradient id="paint38_linear_1003_26737" x1="325.437" y1="700.611" x2="699.192" y2="700.611" gradientUnits="userSpaceOnUse">
<stop stop-color="#2866D9"/>
<stop offset="1" stop-color="#D3142A"/>
</linearGradient>
<linearGradient id="paint39_linear_1003_26737" x1="325.434" y1="698.833" x2="699.193" y2="698.833" gradientUnits="userSpaceOnUse">
<stop stop-color="#2866D9"/>
<stop offset="1" stop-color="#D3142A"/>
</linearGradient>
<linearGradient id="paint40_linear_1003_26737" x1="325.434" y1="685.773" x2="699.193" y2="685.773" gradientUnits="userSpaceOnUse">
<stop stop-color="#2866D9"/>
<stop offset="1" stop-color="#D3142A"/>
</linearGradient>
<linearGradient id="paint41_linear_1003_26737" x1="325.435" y1="683.271" x2="699.193" y2="683.271" gradientUnits="userSpaceOnUse">
<stop stop-color="#2866D9"/>
<stop offset="1" stop-color="#D3142A"/>
</linearGradient>
<linearGradient id="paint42_linear_1003_26737" x1="325.433" y1="691.802" x2="699.193" y2="691.802" gradientUnits="userSpaceOnUse">
<stop stop-color="#2866D9"/>
<stop offset="1" stop-color="#D3142A"/>
</linearGradient>
<linearGradient id="paint43_linear_1003_26737" x1="325.435" y1="680.827" x2="699.193" y2="680.827" gradientUnits="userSpaceOnUse">
<stop stop-color="#2866D9"/>
<stop offset="1" stop-color="#D3142A"/>
</linearGradient>
<linearGradient id="paint44_linear_1003_26737" x1="325.446" y1="690.07" x2="699.191" y2="690.07" gradientUnits="userSpaceOnUse">
<stop stop-color="#2866D9"/>
<stop offset="1" stop-color="#D3142A"/>
</linearGradient>
<linearGradient id="paint45_linear_1003_26737" x1="325.433" y1="526.633" x2="699.194" y2="526.633" gradientUnits="userSpaceOnUse">
<stop stop-color="#2866D9"/>
<stop offset="1" stop-color="#D3142A"/>
</linearGradient>
<linearGradient id="paint46_linear_1003_26737" x1="325.433" y1="556.476" x2="699.193" y2="556.476" gradientUnits="userSpaceOnUse">
<stop stop-color="#2866D9"/>
<stop offset="1" stop-color="#D3142A"/>
</linearGradient>
<linearGradient id="paint47_linear_1003_26737" x1="325.433" y1="574.864" x2="699.194" y2="574.864" gradientUnits="userSpaceOnUse">
<stop stop-color="#2866D9"/>
<stop offset="1" stop-color="#D3142A"/>
</linearGradient>
<linearGradient id="paint48_linear_1003_26737" x1="325.433" y1="545.245" x2="699.194" y2="545.245" gradientUnits="userSpaceOnUse">
<stop stop-color="#2866D9"/>
<stop offset="1" stop-color="#D3142A"/>
</linearGradient>
<linearGradient id="paint49_linear_1003_26737" x1="325.433" y1="614.075" x2="699.193" y2="614.075" gradientUnits="userSpaceOnUse">
<stop stop-color="#2866D9"/>
<stop offset="1" stop-color="#D3142A"/>
</linearGradient>
<linearGradient id="paint50_linear_1003_26737" x1="325.433" y1="508.614" x2="699.192" y2="508.614" gradientUnits="userSpaceOnUse">
<stop stop-color="#2866D9"/>
<stop offset="1" stop-color="#D3142A"/>
</linearGradient>
<linearGradient id="paint51_linear_1003_26737" x1="325.433" y1="598.993" x2="699.193" y2="598.993" gradientUnits="userSpaceOnUse">
<stop stop-color="#2866D9"/>
<stop offset="1" stop-color="#D3142A"/>
</linearGradient>
<linearGradient id="paint52_linear_1003_26737" x1="325.434" y1="602.196" x2="699.192" y2="602.196" gradientUnits="userSpaceOnUse">
<stop stop-color="#2866D9"/>
<stop offset="1" stop-color="#D3142A"/>
</linearGradient>
<linearGradient id="paint53_linear_1003_26737" x1="325.433" y1="563.897" x2="699.193" y2="563.897" gradientUnits="userSpaceOnUse">
<stop stop-color="#2866D9"/>
<stop offset="1" stop-color="#D3142A"/>
</linearGradient>
<linearGradient id="paint54_linear_1003_26737" x1="325.435" y1="608.346" x2="699.192" y2="608.346" gradientUnits="userSpaceOnUse">
<stop stop-color="#2866D9"/>
<stop offset="1" stop-color="#D3142A"/>
</linearGradient>
<linearGradient id="paint55_linear_1003_26737" x1="325.433" y1="571.237" x2="699.194" y2="571.237" gradientUnits="userSpaceOnUse">
<stop stop-color="#2866D9"/>
<stop offset="1" stop-color="#D3142A"/>
</linearGradient>
<linearGradient id="paint56_linear_1003_26737" x1="325.433" y1="560.195" x2="699.194" y2="560.195" gradientUnits="userSpaceOnUse">
<stop stop-color="#2866D9"/>
<stop offset="1" stop-color="#D3142A"/>
</linearGradient>
<linearGradient id="paint57_linear_1003_26737" x1="325.434" y1="585.519" x2="699.193" y2="585.519" gradientUnits="userSpaceOnUse">
<stop stop-color="#2866D9"/>
<stop offset="1" stop-color="#D3142A"/>
</linearGradient>
<linearGradient id="paint58_linear_1003_26737" x1="325.436" y1="447.159" x2="699.196" y2="447.159" gradientUnits="userSpaceOnUse">
<stop stop-color="#2866D9"/>
<stop offset="1" stop-color="#D3142A"/>
</linearGradient>
<linearGradient id="paint59_linear_1003_26737" x1="325.433" y1="567.583" x2="699.193" y2="567.583" gradientUnits="userSpaceOnUse">
<stop stop-color="#2866D9"/>
<stop offset="1" stop-color="#D3142A"/>
</linearGradient>
<linearGradient id="paint60_linear_1003_26737" x1="325.433" y1="530.325" x2="699.193" y2="530.325" gradientUnits="userSpaceOnUse">
<stop stop-color="#2866D9"/>
<stop offset="1" stop-color="#D3142A"/>
</linearGradient>
<linearGradient id="paint61_linear_1003_26737" x1="325.433" y1="534.037" x2="699.193" y2="534.037" gradientUnits="userSpaceOnUse">
<stop stop-color="#2866D9"/>
<stop offset="1" stop-color="#D3142A"/>
</linearGradient>
<linearGradient id="paint62_linear_1003_26737" x1="325.433" y1="610.758" x2="699.193" y2="610.758" gradientUnits="userSpaceOnUse">
<stop stop-color="#2866D9"/>
<stop offset="1" stop-color="#D3142A"/>
</linearGradient>
<linearGradient id="paint63_linear_1003_26737" x1="325.433" y1="541.504" x2="699.194" y2="541.504" gradientUnits="userSpaceOnUse">
<stop stop-color="#2866D9"/>
<stop offset="1" stop-color="#D3142A"/>
</linearGradient>
<linearGradient id="paint64_linear_1003_26737" x1="325.434" y1="582.014" x2="699.193" y2="582.014" gradientUnits="userSpaceOnUse">
<stop stop-color="#2866D9"/>
<stop offset="1" stop-color="#D3142A"/>
</linearGradient>
<linearGradient id="paint65_linear_1003_26737" x1="687.89" y1="717.998" x2="341.98" y2="408.9" gradientUnits="userSpaceOnUse">
<stop stop-color="#2866D9"/>
<stop offset="1" stop-color="#D3142A"/>
</linearGradient>
<linearGradient id="paint66_linear_1003_26737" x1="679.058" y1="727.881" x2="333.145" y2="418.786" gradientUnits="userSpaceOnUse">
<stop stop-color="#2866D9"/>
<stop offset="1" stop-color="#D3142A"/>
</linearGradient>
<linearGradient id="paint67_linear_1003_26737" x1="666.279" y1="742.184" x2="320.367" y2="433.091" gradientUnits="userSpaceOnUse">
<stop stop-color="#2866D9"/>
<stop offset="1" stop-color="#D3142A"/>
</linearGradient>
<linearGradient id="paint68_linear_1003_26737" x1="677.2" y1="729.959" x2="331.289" y2="420.868" gradientUnits="userSpaceOnUse">
<stop stop-color="#2866D9"/>
<stop offset="1" stop-color="#D3142A"/>
</linearGradient>
<linearGradient id="paint69_linear_1003_26737" x1="664.814" y1="743.823" x2="318.903" y2="434.731" gradientUnits="userSpaceOnUse">
<stop stop-color="#2866D9"/>
<stop offset="1" stop-color="#D3142A"/>
</linearGradient>
<linearGradient id="paint70_linear_1003_26737" x1="674.977" y1="732.449" x2="329.062" y2="423.359" gradientUnits="userSpaceOnUse">
<stop stop-color="#2866D9"/>
<stop offset="1" stop-color="#D3142A"/>
</linearGradient>
<linearGradient id="paint71_linear_1003_26737" x1="710.754" y1="692.413" x2="364.842" y2="383.318" gradientUnits="userSpaceOnUse">
<stop stop-color="#2866D9"/>
<stop offset="1" stop-color="#D3142A"/>
</linearGradient>
<linearGradient id="paint72_linear_1003_26737" x1="653.156" y1="756.867" x2="307.247" y2="447.776" gradientUnits="userSpaceOnUse">
<stop stop-color="#2866D9"/>
<stop offset="1" stop-color="#D3142A"/>
</linearGradient>
<linearGradient id="paint73_linear_1003_26737" x1="714.705" y1="687.991" x2="368.775" y2="378.907" gradientUnits="userSpaceOnUse">
<stop stop-color="#2866D9"/>
<stop offset="1" stop-color="#D3142A"/>
</linearGradient>
<linearGradient id="paint74_linear_1003_26737" x1="716.43" y1="686.057" x2="370.524" y2="376.97" gradientUnits="userSpaceOnUse">
<stop stop-color="#2866D9"/>
<stop offset="1" stop-color="#D3142A"/>
</linearGradient>
<linearGradient id="paint75_linear_1003_26737" x1="691.126" y1="714.377" x2="345.218" y2="405.289" gradientUnits="userSpaceOnUse">
<stop stop-color="#2866D9"/>
<stop offset="1" stop-color="#D3142A"/>
</linearGradient>
<linearGradient id="paint76_linear_1003_26737" x1="650.985" y1="759.3" x2="305.074" y2="450.209" gradientUnits="userSpaceOnUse">
<stop stop-color="#2866D9"/>
<stop offset="1" stop-color="#D3142A"/>
</linearGradient>
<linearGradient id="paint77_linear_1003_26737" x1="719.842" y1="682.239" x2="535.121" y2="517.197" gradientUnits="userSpaceOnUse">
<stop stop-color="#2866D9"/>
<stop offset="1" stop-color="#D3142A"/>
</linearGradient>
<linearGradient id="paint78_linear_1003_26737" x1="718.266" y1="684.009" x2="558.181" y2="540.964" gradientUnits="userSpaceOnUse">
<stop stop-color="#2866D9"/>
<stop offset="1" stop-color="#D3142A"/>
</linearGradient>
<linearGradient id="paint79_linear_1003_26737" x1="668.054" y1="740.198" x2="322.143" y2="431.106" gradientUnits="userSpaceOnUse">
<stop stop-color="#2866D9"/>
<stop offset="1" stop-color="#D3142A"/>
</linearGradient>
<linearGradient id="paint80_linear_1003_26737" x1="698.891" y1="705.685" x2="352.973" y2="396.592" gradientUnits="userSpaceOnUse">
<stop stop-color="#2866D9"/>
<stop offset="1" stop-color="#D3142A"/>
</linearGradient>
<linearGradient id="paint81_linear_1003_26737" x1="708.424" y1="695.017" x2="362.509" y2="385.919" gradientUnits="userSpaceOnUse">
<stop stop-color="#2866D9"/>
<stop offset="1" stop-color="#D3142A"/>
</linearGradient>
<linearGradient id="paint82_linear_1003_26737" x1="693.57" y1="711.642" x2="347.651" y2="402.548" gradientUnits="userSpaceOnUse">
<stop stop-color="#2866D9"/>
<stop offset="1" stop-color="#D3142A"/>
</linearGradient>
<linearGradient id="paint83_linear_1003_26737" x1="696.59" y1="708.263" x2="350.671" y2="399.17" gradientUnits="userSpaceOnUse">
<stop stop-color="#2866D9"/>
<stop offset="1" stop-color="#D3142A"/>
</linearGradient>
<linearGradient id="paint84_linear_1003_26737" x1="703.846" y1="700.138" x2="357.943" y2="391.048" gradientUnits="userSpaceOnUse">
<stop stop-color="#2866D9"/>
<stop offset="1" stop-color="#D3142A"/>
</linearGradient>
<linearGradient id="paint85_linear_1003_26737" x1="701.685" y1="702.561" x2="355.769" y2="393.473" gradientUnits="userSpaceOnUse">
<stop stop-color="#2866D9"/>
<stop offset="1" stop-color="#D3142A"/>
</linearGradient>
<linearGradient id="paint86_linear_1003_26737" x1="654.824" y1="755.006" x2="308.911" y2="445.915" gradientUnits="userSpaceOnUse">
<stop stop-color="#2866D9"/>
<stop offset="1" stop-color="#D3142A"/>
</linearGradient>
<linearGradient id="paint87_linear_1003_26737" x1="655.554" y1="754.185" x2="309.643" y2="445.095" gradientUnits="userSpaceOnUse">
<stop stop-color="#2866D9"/>
<stop offset="1" stop-color="#D3142A"/>
</linearGradient>
<linearGradient id="paint88_linear_1003_26737" x1="654.168" y1="755.737" x2="308.257" y2="446.643" gradientUnits="userSpaceOnUse">
<stop stop-color="#2866D9"/>
<stop offset="1" stop-color="#D3142A"/>
</linearGradient>
<linearGradient id="paint89_linear_1003_26737" x1="653.443" y1="756.549" x2="307.531" y2="447.457" gradientUnits="userSpaceOnUse">
<stop stop-color="#2866D9"/>
<stop offset="1" stop-color="#D3142A"/>
</linearGradient>
<linearGradient id="paint90_linear_1003_26737" x1="654.485" y1="755.38" x2="308.575" y2="446.289" gradientUnits="userSpaceOnUse">
<stop stop-color="#2866D9"/>
<stop offset="1" stop-color="#D3142A"/>
</linearGradient>
<linearGradient id="paint91_linear_1003_26737" x1="655.182" y1="754.602" x2="309.271" y2="445.51" gradientUnits="userSpaceOnUse">
<stop stop-color="#2866D9"/>
<stop offset="1" stop-color="#D3142A"/>
</linearGradient>
<linearGradient id="paint92_linear_1003_26737" x1="656.741" y1="752.859" x2="310.828" y2="443.768" gradientUnits="userSpaceOnUse">
<stop stop-color="#2866D9"/>
<stop offset="1" stop-color="#D3142A"/>
</linearGradient>
<linearGradient id="paint93_linear_1003_26737" x1="654.61" y1="755.242" x2="308.699" y2="446.151" gradientUnits="userSpaceOnUse">
<stop stop-color="#2866D9"/>
<stop offset="1" stop-color="#D3142A"/>
</linearGradient>
<linearGradient id="paint94_linear_1003_26737" x1="655.94" y1="753.755" x2="310.026" y2="444.665" gradientUnits="userSpaceOnUse">
<stop stop-color="#2866D9"/>
<stop offset="1" stop-color="#D3142A"/>
</linearGradient>
<linearGradient id="paint95_linear_1003_26737" x1="653.181" y1="756.844" x2="307.269" y2="447.752" gradientUnits="userSpaceOnUse">
<stop stop-color="#2866D9"/>
<stop offset="1" stop-color="#D3142A"/>
</linearGradient>
<linearGradient id="paint96_linear_1003_26737" x1="652.852" y1="757.213" x2="306.94" y2="448.12" gradientUnits="userSpaceOnUse">
<stop stop-color="#2866D9"/>
<stop offset="1" stop-color="#D3142A"/>
</linearGradient>
<linearGradient id="paint97_linear_1003_26737" x1="652.832" y1="757.232" x2="306.921" y2="448.14" gradientUnits="userSpaceOnUse">
<stop stop-color="#2866D9"/>
<stop offset="1" stop-color="#D3142A"/>
</linearGradient>
<linearGradient id="paint98_linear_1003_26737" x1="652.755" y1="757.318" x2="306.843" y2="448.228" gradientUnits="userSpaceOnUse">
<stop stop-color="#2866D9"/>
<stop offset="1" stop-color="#D3142A"/>
</linearGradient>
<linearGradient id="paint99_linear_1003_26737" x1="652.738" y1="757.336" x2="306.827" y2="448.245" gradientUnits="userSpaceOnUse">
<stop stop-color="#2866D9"/>
<stop offset="1" stop-color="#D3142A"/>
</linearGradient>
<linearGradient id="paint100_linear_1003_26737" x1="653.871" y1="756.067" x2="307.959" y2="446.976" gradientUnits="userSpaceOnUse">
<stop stop-color="#2866D9"/>
<stop offset="1" stop-color="#D3142A"/>
</linearGradient>
<linearGradient id="paint101_linear_1003_26737" x1="652.877" y1="757.184" x2="306.947" y2="448.095" gradientUnits="userSpaceOnUse">
<stop stop-color="#2866D9"/>
<stop offset="1" stop-color="#D3142A"/>
</linearGradient>
<linearGradient id="paint102_linear_1003_26737" x1="655.569" y1="754.169" x2="309.663" y2="445.079" gradientUnits="userSpaceOnUse">
<stop stop-color="#2866D9"/>
<stop offset="1" stop-color="#D3142A"/>
</linearGradient>
<linearGradient id="paint103_linear_1003_26737" x1="659.905" y1="749.318" x2="313.995" y2="440.225" gradientUnits="userSpaceOnUse">
<stop stop-color="#2866D9"/>
<stop offset="1" stop-color="#D3142A"/>
</linearGradient>
<linearGradient id="paint104_linear_1003_26737" x1="677.886" y1="762.358" x2="315.691" y2="436.921" gradientUnits="userSpaceOnUse">
<stop stop-color="#2866D9"/>
<stop offset="1" stop-color="#D3142A"/>
</linearGradient>
<linearGradient id="paint105_linear_1003_26737" x1="657.15" y1="752.405" x2="311.233" y2="443.315" gradientUnits="userSpaceOnUse">
<stop stop-color="#2866D9"/>
<stop offset="1" stop-color="#D3142A"/>
</linearGradient>
<linearGradient id="paint106_linear_1003_26737" x1="660.255" y1="748.939" x2="314.325" y2="439.855" gradientUnits="userSpaceOnUse">
<stop stop-color="#2866D9"/>
<stop offset="1" stop-color="#D3142A"/>
</linearGradient>
<linearGradient id="paint107_linear_1003_26737" x1="662.174" y1="746.775" x2="316.263" y2="437.684" gradientUnits="userSpaceOnUse">
<stop stop-color="#2866D9"/>
<stop offset="1" stop-color="#D3142A"/>
</linearGradient>
<linearGradient id="paint108_linear_1003_26737" x1="663.211" y1="745.616" x2="317.304" y2="436.522" gradientUnits="userSpaceOnUse">
<stop stop-color="#2866D9"/>
<stop offset="1" stop-color="#D3142A"/>
</linearGradient>
<linearGradient id="paint109_linear_1003_26737" x1="660.995" y1="748.097" x2="315.085" y2="439.007" gradientUnits="userSpaceOnUse">
<stop stop-color="#2866D9"/>
<stop offset="1" stop-color="#D3142A"/>
</linearGradient>
<linearGradient id="paint110_linear_1003_26737" x1="660.725" y1="748.4" x2="314.808" y2="439.309" gradientUnits="userSpaceOnUse">
<stop stop-color="#2866D9"/>
<stop offset="1" stop-color="#D3142A"/>
</linearGradient>
<linearGradient id="paint111_linear_1003_26737" x1="657.972" y1="751.479" x2="312.065" y2="442.386" gradientUnits="userSpaceOnUse">
<stop stop-color="#2866D9"/>
<stop offset="1" stop-color="#D3142A"/>
</linearGradient>
<linearGradient id="paint112_linear_1003_26737" x1="655.735" y1="753.983" x2="309.825" y2="444.891" gradientUnits="userSpaceOnUse">
<stop stop-color="#2866D9"/>
<stop offset="1" stop-color="#D3142A"/>
</linearGradient>
<linearGradient id="paint113_linear_1003_26737" x1="656.408" y1="753.235" x2="310.493" y2="444.143" gradientUnits="userSpaceOnUse">
<stop stop-color="#2866D9"/>
<stop offset="1" stop-color="#D3142A"/>
</linearGradient>
<linearGradient id="paint114_linear_1003_26737" x1="659.907" y1="749.311" x2="313.993" y2="440.225" gradientUnits="userSpaceOnUse">
<stop stop-color="#2866D9"/>
<stop offset="1" stop-color="#D3142A"/>
</linearGradient>
<linearGradient id="paint115_linear_1003_26737" x1="657.99" y1="751.46" x2="312.075" y2="442.37" gradientUnits="userSpaceOnUse">
<stop stop-color="#2866D9"/>
<stop offset="1" stop-color="#D3142A"/>
</linearGradient>
<linearGradient id="paint116_linear_1003_26737" x1="659.542" y1="749.718" x2="313.629" y2="440.632" gradientUnits="userSpaceOnUse">
<stop stop-color="#2866D9"/>
<stop offset="1" stop-color="#D3142A"/>
</linearGradient>
<linearGradient id="paint117_linear_1003_26737" x1="657.159" y1="752.389" x2="311.249" y2="443.298" gradientUnits="userSpaceOnUse">
<stop stop-color="#2866D9"/>
<stop offset="1" stop-color="#D3142A"/>
</linearGradient>
<linearGradient id="paint118_linear_1003_26737" x1="659.171" y1="750.139" x2="313.264" y2="441.043" gradientUnits="userSpaceOnUse">
<stop stop-color="#2866D9"/>
<stop offset="1" stop-color="#D3142A"/>
</linearGradient>
<linearGradient id="paint119_linear_1003_26737" x1="325.433" y1="580.968" x2="699.192" y2="580.968" gradientUnits="userSpaceOnUse">
<stop stop-color="#2866D9"/>
<stop offset="1" stop-color="#D3142A"/>
</linearGradient>
<linearGradient id="paint120_linear_1003_26737" x1="676.975" y1="730.212" x2="331.063" y2="421.12" gradientUnits="userSpaceOnUse">
<stop stop-color="#2866D9"/>
<stop offset="1" stop-color="#D3142A"/>
</linearGradient>
<linearGradient id="paint121_linear_1003_26737" x1="636.608" y1="277.234" x2="790.715" y2="570.926" gradientUnits="userSpaceOnUse">
<stop stop-color="#2866D9"/>
<stop offset="1" stop-color="#D3142A"/>
</linearGradient>
<linearGradient id="paint122_linear_1003_26737" x1="763.533" y1="583.009" x2="337.531" y2="386.376" gradientUnits="userSpaceOnUse">
<stop stop-color="#2866D9"/>
<stop offset="1" stop-color="#D3142A"/>
</linearGradient>
<linearGradient id="paint123_linear_1003_26737" x1="519.47" y1="749.366" x2="493.942" y2="631.227" gradientUnits="userSpaceOnUse">
<stop stop-color="#2866D9"/>
<stop offset="1" stop-color="#D3142A"/>
</linearGradient>
<clipPath id="clip0_1003_26737">
<rect width="700" height="558.427" fill="white" transform="translate(226 297)"/>
</clipPath>
</defs>
</svg>
