<svg width="26" height="26" viewBox="0 0 26 26" fill="none" xmlns="http://www.w3.org/2000/svg">
<path fill-rule="evenodd" clip-rule="evenodd" d="M12.5128 25.1277C19.4234 25.1277 25.0255 19.5255 25.0255 12.6149C25.0255 5.7043 19.4234 0.102142 12.5128 0.102142C5.60216 0.102142 0 5.7043 0 12.6149C0 12.6319 3.40319e-05 12.649 0.000102032 12.666H0V25.1277H12.4617V25.1276C12.4787 25.1276 12.4957 25.1277 12.5128 25.1277Z" fill="url(#paint0_linear_55_3991)"/>
<path d="M4.90283 6.12872H7.24557V12.4248C7.24557 13.6138 7.28926 14.5028 7.37663 15.0918C7.47493 15.6807 7.6333 16.203 7.85173 16.6586C8.27769 17.5809 8.90023 18.3032 9.71937 18.8254C10.5494 19.3477 11.4833 19.6089 12.5208 19.6089C14.3229 19.6089 15.6554 18.9866 16.5182 17.742C17.3811 16.4863 17.8125 14.5473 17.8125 11.9248V6.12872H20.1224V12.5082C20.1224 15.6529 19.5054 17.9976 18.2712 19.5422C17.0479 21.0868 15.1858 21.8591 12.6847 21.8591C10.0088 21.8591 8.04287 21.1034 6.78685 19.5922C5.53084 18.0809 4.90283 15.7196 4.90283 12.5082V6.12872Z" fill="white"/>
<defs>
<linearGradient id="paint0_linear_55_3991" x1="25.0255" y1="25.1277" x2="-1.90735e-06" y2="0.102144" gradientUnits="userSpaceOnUse">
<stop stop-color="#09A1E2"/>
<stop offset="1" stop-color="#0E7AD2"/>
</linearGradient>
</defs>
</svg>
