<?xml version="1.0" encoding="UTF-8"?>
<svg id="Layer_1" data-name="Layer 1" xmlns="http://www.w3.org/2000/svg" viewBox="0 0 2355.9 1024">
  <defs>
    <style>
      .cls-1 {
        fill: #f26b24;
      }

      .cls-2 {
        fill: #06293f;
      }
    </style>
  </defs>
  <path class="cls-1" d="m600.1,585.38l-156.11,197.75c-22.87,28.97-66.39,30.22-90.91,2.61l-201.58-227.15c-26-29.3-20.26-74.8,12.18-96.75l221.21-149.41c35.74-24.15,18.64-79.95-24.48-79.95H104.39c-47.68,0-79.19-49.53-58.97-92.69l10.43-22.31c17.33-37.06,54.54-60.75,95.45-60.75h426.89c69.56,0,131.58,43.79,154.86,109.34h0c10.65,29.98.65,63.41-24.72,82.62l-248.64,188.3c-23,17.55-10.63,54.25,18.28,54.25h76.52c48.54,0,75.69,56.03,45.6,94.14Z"/>
  <circle class="cls-2" cx="399.62" cy="908.59" r="58.68"/>
  <path class="cls-1" d="m1165.2,632.48h-284.99c-17.62,0-33.64-10.19-41.1-26.15-7.47-15.96-5.03-34.79,6.26-48.31l222.59-266.79h-173.78c-25.07,0-45.38-20.32-45.38-45.38s20.32-45.38,45.38-45.38h270.75c17.62,0,33.64,10.19,41.1,26.15,7.47,15.95,5.03,34.79-6.26,48.31l-222.59,266.79h188.02c25.07,0,45.38,20.32,45.38,45.38s-20.32,45.38-45.38,45.38Z"/>
  <path class="cls-1" d="m1341.68,632.48c-24.6,0-44.55-19.94-44.55-44.55V245c0-24.6,19.94-44.55,44.55-44.55s44.55,19.94,44.55,44.55v342.93c0,24.6-19.94,44.55-44.55,44.55Z"/>
  <path class="cls-1" d="m2138.77,632.48h-2.15c-98.11,0-177.94-79.82-177.94-177.94v-209.64c0-24.54,19.9-44.44,44.44-44.44s44.44,19.9,44.44,44.44v209.64c0,49.11,39.95,89.06,89.06,89.06h2.15c49.11,0,89.06-39.95,89.06-89.06v-209.64c0-24.54,19.9-44.44,44.44-44.44s44.44,19.9,44.44,44.44v209.64c0,98.11-79.82,177.94-177.94,177.94Z"/>
  <path class="cls-1" d="m1719.63,378.53h95.96c31.06,0,56.25,24.29,56.25,54.25v95.25c0,21.64-10.08,42.19-27.56,55.74-18.41,14.28-39.22,25.88-61.76,34.18-25.48,9.39-53.18,14.53-82.11,14.53-125.6,0-227.76-96.89-227.76-216.02s102.17-215.99,227.76-215.99c52.29,0,100.51,16.79,139,45.01,11.62,8.52,17.44,21.26,17.44,34.03s-5.36,24.55-16.12,33.2c-16.08,12.96-39.18,13.09-55.93.96-23.37-16.92-52.65-27.01-84.39-27.01-76.32,0-138.4,58.23-138.4,129.8s62.09,129.83,138.4,129.83c30.71,0,59.11-9.45,82.08-25.41v-56.15h-61.58c-24.04,0-44.73-17.8-45.89-40.96-1.24-24.75,19.2-45.23,44.63-45.23Z"/>
</svg>